<svg width="8" height="43" viewBox="0 0 8 43" fill="none" xmlns="http://www.w3.org/2000/svg">
<path id="Line 123" d="M3.64645 42.3536C3.84171 42.5488 4.15829 42.5488 4.35356 42.3536L7.53554 39.1716C7.7308 38.9763 7.7308 38.6597 7.53554 38.4645C7.34027 38.2692 7.02369 38.2692 6.82843 38.4645L4 41.2929L1.17157 38.4645C0.976312 38.2692 0.65973 38.2692 0.464468 38.4645C0.269206 38.6597 0.269206 38.9763 0.464468 39.1716L3.64645 42.3536ZM3.5 2.18557e-08L3.5 0.5L4.5 0.5L4.5 -2.18557e-08L3.5 2.18557e-08ZM3.5 1.5L3.5 2.5L4.5 2.5L4.5 1.5L3.5 1.5ZM3.5 3.5L3.5 4.5L4.5 4.5L4.5 3.5L3.5 3.5ZM3.5 5.5L3.5 6.5L4.5 6.5L4.5 5.5L3.5 5.5ZM3.5 7.5L3.5 8.5L4.5 8.5L4.5 7.5L3.5 7.5ZM3.5 9.5L3.5 10.5L4.5 10.5L4.5 9.5L3.5 9.5ZM3.5 11.5L3.5 12.5L4.5 12.5L4.5 11.5L3.5 11.5ZM3.5 13.5L3.5 14.5L4.5 14.5L4.5 13.5L3.5 13.5ZM3.5 15.5L3.5 16.5L4.5 16.5L4.5 15.5L3.5 15.5ZM3.5 17.5L3.5 18.5L4.5 18.5L4.5 17.5L3.5 17.5ZM3.5 19.5L3.5 20.5L4.5 20.5L4.5 19.5L3.5 19.5ZM3.5 21.5L3.5 22.5L4.5 22.5L4.5 21.5L3.5 21.5ZM3.5 23.5L3.5 24.5L4.5 24.5L4.5 23.5L3.5 23.5ZM3.5 25.5L3.5 26.5L4.5 26.5L4.5 25.5L3.5 25.5ZM3.5 27.5L3.5 28.5L4.5 28.5L4.5 27.5L3.5 27.5ZM3.5 29.5L3.5 30.5L4.5 30.5L4.5 29.5L3.5 29.5ZM3.5 31.5L3.5 32.5L4.5 32.5L4.5 31.5L3.5 31.5ZM3.5 33.5L3.5 34.5L4.5 34.5L4.5 33.5L3.5 33.5ZM3.5 35.5L3.5 36.5L4.5 36.5L4.5 35.5L3.5 35.5ZM3.5 37.5L3.5 38.5L4.5 38.5L4.5 37.5L3.5 37.5ZM3.5 39.5L3.5 40.5L4.5 40.5L4.5 39.5L3.5 39.5ZM3.5 41.5L3.5 42L4.5 42L4.5 41.5L3.5 41.5Z" fill="#918E8E"/>
</svg>
