<svg width="1415" height="500" viewBox="0 0 1415 500" fill="none" xmlns="http://www.w3.org/2000/svg">
<g clip-path="url(#clip0_1_5368)">
<rect width="1415" height="500" fill="white"/>
<path d="M1424.55 -93.3875H-1.46875V657.193H1424.55V-93.3875Z" fill="url(#paint0_linear_1_5368)"/>
<path style="mix-blend-mode:multiply" opacity="0.2" d="M941.13 -93.3875C933.05 -55.5611 913.64 -19.2508 883.812 11.0704C824.954 70.8721 727.371 105.561 631.651 100.683C621.481 100.173 611.234 99.2569 600.949 98.1611C547.186 92.4722 492.397 82.0999 444.166 99.8273C403.216 114.883 377.038 147.185 340.081 167.675C291.736 194.483 226.662 198.866 170.428 184.561C114.213 170.256 66.5713 138.855 31.7623 101.163C19.7284 88.1341 9.0823 74.3245 -1.46875 60.4698V-93.3875H941.13Z" fill="url(#paint1_linear_1_5368)"/>
<g style="mix-blend-mode:overlay">
<path d="M1156.39 -93.3875C1144.47 -84.6389 1130.67 -77.556 1115.29 -72.8741C1087.51 -64.3957 1056.2 -62.76 1030.99 -50.2599C997.782 -33.7983 982.345 -2.15036 973.98 28.0869C965.634 58.3392 961.832 90.1221 942.954 117.253C903.829 173.541 806.549 192.899 729.421 172.491C678.072 158.895 635.183 131.494 600.601 98.1054C583.263 81.3586 568.016 63.1261 554.861 44.3685C525.127 1.97628 503.322 -44.7077 462.543 -80.9174C457.638 -85.2842 452.315 -89.4559 446.687 -93.3875H1156.39Z" fill="#F8E6CB"/>
</g>
<g style="mix-blend-mode:overlay">
<path d="M1424.55 275.368V657.193H728.807C731.146 641.09 735.425 625.169 741.854 609.667C763.554 557.2 810.625 511.252 870.306 483.133C901.84 468.263 936.91 458.364 973.616 455.135C1021.41 450.914 1075.29 456.006 1112.13 431.597C1134.29 416.907 1145.05 394.481 1158.86 374.399C1198.19 317.26 1272.27 273.52 1354.41 268.924C1377.97 267.602 1401.86 269.93 1424.55 275.368Z" fill="#F8E6CB"/>
</g>
<path style="mix-blend-mode:soft-light" d="M1229.13 657.192H304.895C307.671 636.641 314.233 616.33 323.762 597.1C346.054 552.217 390.636 509.435 451.138 502.625C477.233 499.685 502.872 503.675 527.693 510.935C563.26 521.331 603.107 512.855 627.509 489.949C644.741 473.793 666.899 460.863 691.796 453.092C737.9 438.677 792.411 442.202 834.921 462.318C847.531 468.288 859.095 475.594 870.26 483.364C902.023 505.445 930.572 531.276 970.57 540.877C1012.17 550.837 1057.62 540.832 1100.25 547.552C1162.73 557.408 1208.64 602.365 1226.79 650.532C1227.62 652.737 1228.4 654.957 1229.13 657.192Z" fill="url(#paint2_linear_1_5368)"/>
<g style="mix-blend-mode:overlay">
<path d="M433.13 151.716C441.02 124.163 419.126 96.7779 384.229 90.5485C349.331 84.3192 314.645 101.605 306.755 129.157C298.865 156.709 320.759 184.095 355.656 190.324C390.554 196.554 425.24 179.268 433.13 151.716Z" fill="#F8E6CB"/>
</g>
<g style="mix-blend-mode:overlay">
<path d="M1149.09 308.432C1158.29 302.004 1159.15 290.907 1151.01 283.645C1142.87 276.383 1128.81 275.706 1119.61 282.133C1110.42 288.56 1109.56 299.658 1117.7 306.92C1125.84 314.182 1139.9 314.859 1149.09 308.432Z" fill="#F8E6CB"/>
</g>
<g style="mix-blend-mode:overlay">
<path d="M194.691 501.74C194.691 506.544 189.756 510.441 183.671 510.441C177.586 510.441 172.651 506.544 172.651 501.74C172.651 496.936 177.586 493.04 183.671 493.04C189.756 493.04 194.691 496.936 194.691 501.74Z" fill="#F8E6CB"/>
</g>
<g style="mix-blend-mode:overlay">
<path d="M1251.17 227.378C1251.17 232.182 1246.23 236.079 1240.15 236.079C1234.06 236.079 1229.12 232.182 1229.12 227.378C1229.12 222.574 1234.06 218.677 1240.15 218.677C1246.23 218.677 1251.17 222.574 1251.17 227.378Z" fill="#F8E6CB"/>
</g>
<path d="M166.773 -111.498C245.84 -111.573 324.222 -82.8569 375.152 -35.1466C419.308 6.23229 442.062 59.0737 479.94 104.143C517.819 149.228 581.799 188.762 649.223 178.86C695.51 172.063 732.304 142.942 754.068 110.025C775.833 77.0926 785.269 40.1546 796.912 4.17684C808.574 -31.8009 823.375 -68.3188 853.53 -96.8399C891.769 -132.983 953.847 -152.487 1013.13 -146.996" stroke="#D8D8D8" stroke-miterlimit="10"/>
<path d="M193.223 -113.809C267.35 -113.883 340.829 -86.9814 388.586 -42.3196C429.987 -3.57772 451.316 45.91 486.819 88.1139C522.341 130.333 582.313 167.351 645.518 158.074C688.917 151.705 723.412 124.443 743.809 93.6142C764.224 62.7855 773.052 28.1801 783.973 -5.51107C794.895 -39.2023 808.784 -73.4031 837.057 -100.095C872.903 -133.936 931.104 -152.206 986.681 -147.05" stroke="#D8D8D8" stroke-miterlimit="10"/>
<path d="M220.404 -116.06C289.454 -116.12 357.915 -91.0126 402.371 -49.2865C440.941 -13.1099 460.805 33.1158 493.887 72.5322C526.968 111.963 582.838 146.535 641.709 137.866C682.139 131.927 714.252 106.459 733.262 77.6617C752.271 48.8644 760.494 16.5574 770.673 -14.9097C780.852 -46.3767 793.785 -78.3087 820.124 -103.251C853.51 -134.853 907.728 -151.922 959.496 -147.107" stroke="#D8D8D8" stroke-miterlimit="10"/>
<path d="M246.854 -118.311C310.965 -118.371 374.525 -95.0274 415.81 -56.2664C451.607 -22.6395 470.065 20.3098 500.772 56.9391C531.48 93.5684 583.361 125.709 638.015 117.663C675.54 112.138 705.373 88.4794 723.015 61.713C740.657 34.9616 748.31 4.92254 757.749 -24.3058C767.206 -53.5492 779.208 -83.228 803.648 -106.407C834.64 -135.785 884.983 -151.638 933.048 -147.164" stroke="#D8D8D8" stroke-miterlimit="10"/>
<path d="M273.303 -120.627C332.476 -120.687 391.136 -99.1735 429.23 -63.4325C462.272 -32.444 479.287 7.15002 507.639 40.9121C535.991 74.6742 583.865 104.298 634.302 96.8774C668.94 91.7801 696.476 69.9816 712.75 45.3048C729.043 20.6428 736.089 -7.03248 744.805 -33.9882C753.522 -60.9438 764.612 -88.3043 787.172 -109.653C815.79 -136.729 862.239 -151.346 906.6 -147.223" stroke="#D8D8D8" stroke-miterlimit="10"/>
<path d="M580.173 765.661C567.096 728.022 557.573 687.008 575.84 650.748C599.79 603.241 666.224 576.623 730.568 570.535C794.911 564.431 859.711 574.509 924.339 578.393C988.968 582.276 1058.18 578.917 1111.46 549.78C1185.32 509.381 1209.58 430.653 1276.24 383.071C1331.82 343.407 1415.72 330.315 1486.27 350.335" stroke="#D8D8D8" stroke-miterlimit="10"/>
<path d="M629.35 765.661C616.978 730.032 607.971 691.191 625.245 656.867C647.897 611.888 710.724 586.689 771.573 580.926C832.442 575.148 893.71 584.693 954.826 588.37C1015.94 592.047 1081.41 588.865 1131.79 561.281C1201.66 523.025 1224.58 448.495 1287.64 403.455C1340.2 365.905 1419.56 353.508 1486.26 372.464" stroke="#D8D8D8" stroke-miterlimit="10"/>
<path d="M677.795 765.661C666.139 732.082 657.62 695.503 673.935 663.153C695.308 620.77 754.577 597.029 812.001 591.6C869.426 586.156 927.231 595.155 984.902 598.604C1042.57 602.068 1104.33 599.069 1151.85 573.078C1217.78 537.039 1239.4 466.806 1298.87 424.363C1348.46 388.969 1423.33 377.3 1486.26 395.163" stroke="#D8D8D8" stroke-miterlimit="10"/>
<path d="M726.973 765.661C716.024 734.144 708.021 699.793 723.342 669.43C743.417 629.64 799.078 607.354 853.009 602.258C906.94 597.163 961.232 605.585 1015.39 608.838C1069.55 612.09 1127.55 609.272 1172.18 584.873C1234.1 551.048 1254.4 485.105 1310.27 445.27C1356.85 412.044 1427.16 401.088 1486.27 417.859" stroke="#D8D8D8" stroke-miterlimit="10"/>
<path d="M776.141 765.661C765.898 736.14 758.43 703.98 772.74 675.554C791.496 638.293 843.567 617.427 894.004 612.657C944.441 607.872 995.219 615.777 1045.86 618.822C1096.51 621.867 1150.77 619.227 1192.52 596.382C1250.42 564.701 1269.43 502.959 1321.67 465.653C1365.23 434.542 1431 424.282 1486.26 439.987" stroke="#D8D8D8" stroke-miterlimit="10"/>
<path d="M-15.6732 206.497C-25.2098 232.715 -8.22625 261.063 16.3942 280.201C41.0146 299.34 72.5311 311.729 101.502 326.608C130.473 341.487 158.475 360.46 169.436 386.334C188.927 432.365 149.128 479.222 130.15 525.388C101.426 595.238 123.805 676.683 186.61 730.859" stroke="#D8D8D8" stroke-miterlimit="10"/>
<path d="M-38.439 211.717C-48.0098 237.935 -30.9654 266.283 -6.25671 285.421C18.452 304.56 50.0813 316.949 79.156 331.828C108.231 346.707 136.333 365.681 147.334 391.554C166.895 437.585 126.953 484.442 107.907 530.609C79.0798 600.459 101.539 681.903 164.569 736.079" stroke="#D8D8D8" stroke-miterlimit="10"/>
<path d="M-60.4897 216.938C-70.0263 243.185 -53.0428 271.564 -28.4223 290.724C-3.80188 309.883 27.7146 322.286 56.6854 337.182C85.6562 352.077 113.658 371.072 124.62 396.973C144.111 443.056 104.311 489.964 85.3332 536.182C56.6094 606.109 78.9881 687.644 141.793 741.879" stroke="#D8D8D8" stroke-miterlimit="10"/>
<path d="M-83.2631 222.738C-92.7997 248.956 -75.8162 277.304 -51.1958 296.442C-26.5753 315.581 4.94111 327.97 33.9119 342.849C62.8827 357.728 90.8847 376.702 101.846 402.575C121.337 448.606 81.538 495.463 62.5598 541.63C33.8359 611.48 56.2147 692.924 119.02 747.1" stroke="#D8D8D8" stroke-miterlimit="10"/>
<path d="M1093.21 -373.55C1098.04 -346.552 1128.18 -326.135 1160.56 -316.586C1192.95 -307.037 1228.13 -305.853 1262.28 -301.595C1296.43 -297.338 1331.8 -289.003 1355.18 -268.916C1396.76 -233.164 1384.58 -177.609 1391.06 -129.369C1400.89 -56.3807 1463.38 10.7618 1548.71 40.0232" stroke="#D8D8D8" stroke-miterlimit="10"/>
<path d="M1075.58 -361.369C1080.4 -334.371 1110.55 -313.954 1142.93 -304.405C1175.32 -294.856 1210.5 -293.672 1244.65 -289.414C1278.78 -285.142 1314.17 -276.822 1337.55 -256.735C1379.13 -220.983 1366.95 -165.428 1373.43 -117.189C1383.26 -44.1997 1445.75 22.9427 1531.08 52.2042" stroke="#D8D8D8" stroke-miterlimit="10"/>
<path d="M1057.21 -349.188C1062.04 -322.19 1092.24 -301.773 1124.67 -292.224C1157.11 -282.675 1192.35 -281.491 1226.55 -277.234C1260.76 -272.961 1296.19 -264.642 1319.6 -244.554C1361.25 -208.802 1349.05 -153.247 1355.54 -105.008C1365.38 -32.0189 1427.98 35.1236 1513.45 64.3851" stroke="#D8D8D8" stroke-miterlimit="10"/>
<path d="M1039.58 -337.007C1044.4 -310.009 1074.55 -289.592 1106.93 -280.043C1139.32 -270.494 1174.5 -269.31 1208.65 -265.052C1242.8 -260.78 1278.17 -252.46 1301.55 -232.373C1343.13 -196.621 1330.95 -141.066 1337.43 -92.8265C1347.26 -19.8377 1409.75 47.3048 1495.08 76.5662" stroke="#D8D8D8" stroke-miterlimit="10"/>
</g>
<defs>
<linearGradient id="paint0_linear_1_5368" x1="711.541" y1="-93.3875" x2="711.541" y2="657.193" gradientUnits="userSpaceOnUse">
<stop stop-color="#F7FFFF"/>
<stop offset="1" stop-color="#E3DBDB"/>
</linearGradient>
<linearGradient id="paint1_linear_1_5368" x1="-1.46875" y1="49.5873" x2="941.13" y2="49.5873" gradientUnits="userSpaceOnUse">
<stop stop-color="#D1D5DE"/>
<stop offset="1" stop-color="#DBDBDB"/>
</linearGradient>
<linearGradient id="paint2_linear_1_5368" x1="304.895" y1="550.747" x2="1229.13" y2="550.747" gradientUnits="userSpaceOnUse">
<stop stop-color="#D1D5DE"/>
<stop offset="1" stop-color="#DBDBDB"/>
</linearGradient>
<clipPath id="clip0_1_5368">
<rect width="1415" height="500" fill="white"/>
</clipPath>
</defs>
</svg>
