<svg width="280" height="28" viewBox="0 0 280 28" fill="none" xmlns="http://www.w3.org/2000/svg">
<path d="M52.558 18.6125L52.6124 18.3685L52.558 18.6125ZM208.523 18.9811L208.577 19.2254L208.523 18.9811ZM279.635 3.28904C279.751 3.36362 279.784 3.51828 279.71 3.63447L278.495 5.52798C278.42 5.64417 278.265 5.6779 278.149 5.60332C278.033 5.52874 277.999 5.37409 278.074 5.25789L279.154 3.57478L277.471 2.49444C277.355 2.41986 277.321 2.2652 277.396 2.14901C277.47 2.03282 277.625 1.99908 277.741 2.07366L279.635 3.28904ZM0.554621 6.75535L1.55573 6.97868L1.44687 7.46668L0.445756 7.24335L0.554621 6.75535ZM3.55796 7.42534L5.56018 7.872L5.45131 8.36L3.44909 7.91334L3.55796 7.42534ZM7.5624 8.31866L9.56462 8.76532L9.45576 9.25332L7.45354 8.80666L7.5624 8.31866ZM11.5668 9.21197L13.5691 9.65863L13.4602 10.1466L11.458 9.69998L11.5668 9.21197ZM15.5713 10.1053L17.5735 10.552L17.4646 11.04L15.4624 10.5933L15.5713 10.1053ZM19.5757 10.9986L21.578 11.4453L21.4691 11.9333L19.4669 11.4866L19.5757 10.9986ZM23.5802 11.8919L25.5824 12.3386L25.4735 12.8266L23.4713 12.3799L23.5802 11.8919ZM27.5846 12.7852L29.5869 13.2319L29.478 13.7199L27.4758 13.2733L27.5846 12.7852ZM31.5891 13.6786L33.5913 14.1252L33.4824 14.6132L31.4802 14.1666L31.5891 13.6786ZM35.5935 14.5719L37.5957 15.0185L37.4869 15.5065L35.4847 15.0599L35.5935 14.5719ZM39.598 15.4652L41.6002 15.9119L41.4913 16.3999L39.4891 15.9532L39.598 15.4652ZM43.6024 16.3585L45.6046 16.8052L45.4958 17.2932L43.4935 16.8465L43.6024 16.3585ZM47.6069 17.2518L49.6091 17.6985L49.5002 18.1865L47.498 17.7398L47.6069 17.2518ZM51.6113 18.1452L52.6124 18.3685L52.5035 18.8565L51.5024 18.6332L51.6113 18.1452ZM52.6124 18.3685C52.9401 18.4416 53.2679 18.5142 53.5958 18.5864L53.4883 19.0747C53.16 19.0024 52.8317 18.9297 52.5035 18.8565L52.6124 18.3685ZM55.564 19.014C56.2204 19.1547 56.8771 19.2935 57.534 19.4305L57.432 19.92C56.7741 19.7828 56.1165 19.6438 55.4592 19.5029L55.564 19.014ZM59.5071 19.8362C60.1651 19.9696 60.8233 20.1011 61.4818 20.2308L61.3852 20.7214C60.7258 20.5915 60.0666 20.4598 59.4078 20.3262L59.5071 19.8362ZM63.459 20.6144C64.1185 20.7405 64.7782 20.8647 65.4383 20.987L65.3471 21.4787C64.6862 21.3561 64.0255 21.2318 63.3651 21.1055L63.459 20.6144ZM67.4192 21.3486C68.0802 21.4673 68.7413 21.5842 69.4027 21.6992L69.3171 22.1918C68.6547 22.0766 67.9927 21.9596 67.3308 21.8407L67.4192 21.3486ZM71.3877 22.0386C72.0498 22.15 72.7122 22.2595 73.3748 22.3671L73.2946 22.8606C72.6311 22.7529 71.9678 22.6432 71.3047 22.5317L71.3877 22.0386ZM75.3636 22.6845C76.0268 22.7884 76.6903 22.8905 77.354 22.9908L77.2793 23.4852C76.6147 23.3848 75.9503 23.2826 75.2862 23.1785L75.3636 22.6845ZM79.3463 23.286C80.0107 23.3826 80.6752 23.4773 81.3399 23.5701L81.2708 24.0653C80.6051 23.9723 79.9397 23.8775 79.2744 23.7808L79.3463 23.286ZM83.3355 23.8431C84.0009 23.9323 84.6665 24.0196 85.3323 24.105L85.2687 24.601C84.602 24.5154 83.9354 24.428 83.2691 24.3387L83.3355 23.8431ZM87.3305 24.3558C87.997 24.4375 88.6635 24.5174 89.3303 24.5955L89.2722 25.0921C88.6045 25.0139 87.937 24.9339 87.2697 24.8521L87.3305 24.3558ZM91.331 24.8239C91.9983 24.8983 92.6658 24.9707 93.3334 25.0413L93.2808 25.5386C92.6123 25.4679 91.9439 25.3953 91.2757 25.3209L91.331 24.8239ZM95.3367 25.2475C96.0048 25.3144 96.6729 25.3794 97.3412 25.4426L97.2942 25.9404C96.625 25.8771 95.9559 25.812 95.2869 25.745L95.3367 25.2475ZM99.3468 25.6265C100.015 25.6859 100.684 25.7435 101.353 25.7992L101.312 26.2975C100.642 26.2417 99.9721 26.184 99.3025 26.1245L99.3468 25.6265ZM103.361 25.9608C104.03 26.0128 104.7 26.0629 105.369 26.1111L105.333 26.6099C104.663 26.5615 103.992 26.5113 103.322 26.4593L103.361 25.9608ZM107.378 26.2503C108.048 26.2949 108.718 26.3375 109.388 26.3783L109.358 26.8774C108.687 26.8366 108.016 26.7938 107.345 26.7492L107.378 26.2503ZM111.399 26.4952C112.069 26.5322 112.739 26.5674 113.41 26.6008L113.385 27.1002C112.714 27.0668 112.042 27.0315 111.371 26.9944L111.399 26.4952ZM115.422 26.6952C116.092 26.7248 116.763 26.7525 117.434 26.7784L117.415 27.278C116.743 27.2521 116.071 27.2244 115.4 27.1947L115.422 26.6952ZM119.447 26.8504C120.117 26.8726 120.788 26.8928 121.46 26.9112L121.446 27.4111C120.774 27.3926 120.102 27.3723 119.43 27.3502L119.447 26.8504ZM123.473 26.9608C124.144 26.9755 124.815 26.9883 125.486 26.9992L125.478 27.4992C124.806 27.4882 124.134 27.4754 123.462 27.4607L123.473 26.9608ZM127.5 27.0264C128.172 27.0336 128.843 27.0389 129.514 27.0424L129.512 27.5424C128.839 27.5389 128.167 27.5336 127.495 27.5264L127.5 27.0264ZM131.528 27.0472C132.199 27.0469 132.871 27.0447 133.542 27.0407L133.545 27.5407C132.873 27.5447 132.201 27.5469 131.528 27.5472L131.528 27.0472ZM135.556 27.023C136.227 27.0153 136.898 27.0057 137.57 26.9942L137.578 27.4941C136.906 27.5056 136.234 27.5152 135.562 27.523L135.556 27.023ZM139.583 26.9541C140.254 26.9388 140.925 26.9217 141.597 26.9028L141.611 27.4026C140.939 27.4216 140.267 27.4387 139.595 27.4539L139.583 26.9541ZM143.61 26.8403C144.28 26.8176 144.951 26.793 145.622 26.7666L145.642 27.2662C144.97 27.2927 144.298 27.3173 143.626 27.34L143.61 26.8403ZM147.634 26.6817C148.305 26.6515 148.975 26.6195 149.646 26.5856L149.671 27.0849C149 27.1189 148.328 27.1509 147.657 27.1812L147.634 26.6817ZM151.657 26.4782C152.327 26.4406 152.997 26.4011 153.668 26.3597L153.698 26.8588C153.027 26.9002 152.356 26.9398 151.685 26.9775L151.657 26.4782ZM155.677 26.23C156.347 26.185 157.017 26.138 157.686 26.0892L157.723 26.5878C157.052 26.6367 156.382 26.6838 155.711 26.7289L155.677 26.23ZM159.695 25.9371C160.364 25.8846 161.033 25.8301 161.702 25.7739L161.744 26.2721C161.074 26.3285 160.404 26.3829 159.734 26.4356L159.695 25.9371ZM163.708 25.5994C164.377 25.5395 165.045 25.4776 165.714 25.4139L165.761 25.9116C165.092 25.9754 164.422 26.0374 163.753 26.0974L163.708 25.5994ZM167.718 25.2171C168.386 25.1497 169.054 25.0804 169.721 25.0092L169.774 25.5064C169.106 25.5777 168.437 25.6471 167.768 25.7146L167.718 25.2171ZM171.723 24.7902C172.39 24.7153 173.057 24.6386 173.724 24.56L173.782 25.0565C173.115 25.1352 172.447 25.2121 171.779 25.2871L171.723 24.7902ZM175.723 24.3187C176.39 24.2364 177.056 24.1522 177.721 24.0662L177.785 24.5621C177.119 24.6482 176.452 24.7325 175.785 24.8149L175.723 24.3187ZM179.718 23.8026C180.383 23.7129 181.048 23.6214 181.713 23.5279L181.783 24.0231C181.117 24.1166 180.451 24.2083 179.785 24.2981L179.718 23.8026ZM183.707 23.2421C184.371 23.145 185.035 23.0461 185.699 22.9453L185.774 23.4396C185.109 23.5405 184.444 23.6396 183.779 23.7369L183.707 23.2421ZM187.689 22.6373C188.352 22.5328 189.015 22.4264 189.678 22.3182L189.758 22.8117C189.095 22.92 188.431 23.0265 187.767 23.1312L187.689 22.6373ZM191.664 21.9881C192.326 21.8762 192.988 21.7625 193.649 21.6469L193.735 22.1394C193.073 22.2552 192.41 22.3691 191.747 22.4811L191.664 21.9881ZM195.632 21.2947C196.293 21.1755 196.953 21.0544 197.613 20.9315L197.705 21.423C197.044 21.5461 196.382 21.6674 195.721 21.7868L195.632 21.2947ZM199.592 20.5572C200.251 20.4306 200.91 20.3022 201.569 20.1719L201.666 20.6624C201.006 20.7929 200.346 20.9215 199.686 21.0482L199.592 20.5572ZM203.543 19.7756C204.201 19.6417 204.858 19.506 205.515 19.3684L205.618 19.8578C204.96 19.9955 204.302 20.1315 203.643 20.2655L203.543 19.7756ZM207.486 18.9501C207.814 18.8795 208.142 18.8084 208.47 18.7368L208.577 19.2254C208.248 19.297 207.919 19.3682 207.591 19.4389L207.486 18.9501ZM208.47 18.7368L209.456 18.5218L209.562 19.0103L208.577 19.2254L208.47 18.7368ZM211.427 18.0918L213.399 17.6617L213.505 18.1502L211.534 18.5803L211.427 18.0918ZM215.37 17.2317L217.342 16.8016L217.449 17.2901L215.477 17.7202L215.37 17.2317ZM219.314 16.3716L221.285 15.9415L221.392 16.4301L219.42 16.8601L219.314 16.3716ZM223.257 15.5115L225.228 15.0814L225.335 15.57L223.363 16L223.257 15.5115ZM227.2 14.6514L229.171 14.2214L229.278 14.7099L227.306 15.1399L227.2 14.6514ZM231.143 13.7913L233.115 13.3613L233.221 13.8498L231.25 14.2798L231.143 13.7913ZM235.086 12.9312L237.058 12.5012L237.164 12.9897L235.193 13.4197L235.086 12.9312ZM239.029 12.0711L241.001 11.6411L241.107 12.1296L239.136 12.5596L239.029 12.0711ZM242.972 11.211L244.944 10.781L245.05 11.2695L243.079 11.6995L242.972 11.211ZM246.915 10.3509L248.887 9.92089L248.994 10.4094L247.022 10.8395L246.915 10.3509ZM250.859 9.49085L252.83 9.0608L252.937 9.54931L250.965 9.97936L250.859 9.49085ZM254.802 8.63075L256.773 8.20071L256.88 8.68922L254.908 9.11927L254.802 8.63075ZM258.745 7.77066L260.716 7.34062L260.823 7.82913L258.851 8.25918L258.745 7.77066ZM262.688 6.91057L264.66 6.48052L264.766 6.96904L262.795 7.39908L262.688 6.91057ZM266.631 6.05048L268.603 5.62043L268.709 6.10895L266.738 6.53899L266.631 6.05048ZM270.574 5.19039L272.546 4.76034L272.652 5.24885L270.681 5.6789L270.574 5.19039ZM274.517 4.33029L276.489 3.90024L276.595 4.38876L274.624 4.81881L274.517 4.33029ZM278.46 3.4702L279.446 3.25518L279.553 3.74369L278.567 3.95871L278.46 3.4702ZM52.558 18.6125L52.6668 18.1245L52.558 18.6125ZM208.523 18.9811L208.63 19.4696L208.523 18.9811ZM279.77 3.07865C280.002 3.22782 280.069 3.53713 279.92 3.76952L277.49 7.55652C277.34 7.78891 277.031 7.85638 276.799 7.70722C276.566 7.55805 276.499 7.24874 276.648 7.01635L278.809 3.65013L275.442 1.48945C275.21 1.34029 275.143 1.03098 275.292 0.798589C275.441 0.566199 275.75 0.498732 275.983 0.647896L279.77 3.07865ZM0.609053 6.51135L1.61016 6.73468L1.39244 7.71069L0.391324 7.48736L0.609053 6.51135ZM3.61239 7.18134L5.61461 7.62799L5.39688 8.604L3.39466 8.15734L3.61239 7.18134ZM7.61683 8.07465L9.61905 8.52131L9.40133 9.49732L7.3991 9.05066L7.61683 8.07465ZM11.6213 8.96797L13.6235 9.41463L13.4058 10.3906L11.4035 9.94398L11.6213 8.96797ZM15.6257 9.86129L17.6279 10.3079L17.4102 11.284L15.408 10.8373L15.6257 9.86129ZM19.6302 10.7546L21.6324 11.2013L21.4147 12.1773L19.4124 11.7306L19.6302 10.7546ZM23.6346 11.6479L25.6368 12.0946L25.4191 13.0706L23.4169 12.6239L23.6346 11.6479ZM27.6391 12.5412L29.6413 12.9879L29.4236 13.9639L27.4213 13.5173L27.6391 12.5412ZM31.6435 13.4346L33.6457 13.8812L33.428 14.8572L31.4258 14.4106L31.6435 13.4346ZM35.648 14.3279L37.6502 14.7745L37.4324 15.7505L35.4302 15.3039L35.648 14.3279ZM39.6524 15.2212L41.6546 15.6679L41.4369 16.6439L39.4347 16.1972L39.6524 15.2212ZM43.6568 16.1145L45.6591 16.5612L45.4413 17.5372L43.4391 17.0905L43.6568 16.1145ZM47.6613 17.0078L49.6635 17.4545L49.4458 18.4305L47.4436 17.9838L47.6613 17.0078ZM51.6657 17.9012L52.6668 18.1245L52.4491 19.1005L51.448 18.8772L51.6657 17.9012ZM52.6668 18.1245C52.9943 18.1975 53.3219 18.2701 53.6496 18.3423L53.4346 19.3189C53.106 19.2466 52.7775 19.1738 52.4491 19.1005L52.6668 18.1245ZM55.6164 18.7696C56.2723 18.9101 56.9286 19.0489 57.5851 19.1858L57.3809 20.1647C56.7226 20.0274 56.0646 19.8883 55.4068 19.7474L55.6164 18.7696ZM59.5568 19.5912C60.2143 19.7245 60.8721 19.8559 61.5301 19.9855L61.3369 20.9667C60.677 20.8367 60.0174 20.7049 59.3581 20.5713L59.5568 19.5912ZM63.5059 20.3689C64.165 20.4948 64.8243 20.619 65.4838 20.7412L65.3015 21.7245C64.6402 21.6019 63.979 21.4774 63.3182 21.3511L63.5059 20.3689ZM67.4634 21.1025C68.1239 21.2212 68.7846 21.3379 69.4455 21.4529L69.2742 22.4381C68.6115 22.3228 67.9489 22.2057 67.2866 22.0868L67.4634 21.1025ZM71.4291 21.7921C72.0908 21.9034 72.7527 22.0128 73.4149 22.1203L73.2545 23.1074C72.5906 22.9996 71.9268 22.8898 71.2633 22.7783L71.4291 21.7921ZM75.4023 22.4375C76.0651 22.5414 76.7281 22.6434 77.3913 22.7436L77.242 23.7324C76.5769 23.6319 75.9121 23.5296 75.2474 23.4254L75.4023 22.4375ZM79.3823 23.0386C80.0462 23.1351 80.7103 23.2297 81.3745 23.3225L81.2362 24.3129C80.5701 24.2199 79.9042 24.125 79.2385 24.0282L79.3823 23.0386ZM83.3687 23.5953C84.0337 23.6844 84.6988 23.7717 85.3641 23.8571L85.2368 24.8489C84.5697 24.7633 83.9027 24.6758 83.2359 24.5865L83.3687 23.5953ZM87.361 24.1077C88.0269 24.1893 88.6931 24.2692 89.3594 24.3471L89.2431 25.3404C88.575 25.2622 87.907 25.1821 87.2392 25.1002L87.361 24.1077ZM91.3587 24.5755C92.0255 24.6497 92.6926 24.7222 93.3597 24.7927L93.2545 25.7872C92.5856 25.7164 91.9167 25.6438 91.248 25.5693L91.3587 24.5755ZM95.3616 24.9988C96.0292 25.0656 96.6969 25.1306 97.3647 25.1937L97.2707 26.1893C96.601 26.126 95.9314 26.0608 95.262 25.9938L95.3616 24.9988ZM99.3689 25.3775C100.037 25.4369 100.706 25.4944 101.374 25.5501L101.291 26.5466C100.621 26.4908 99.9505 26.4331 99.2804 26.3735L99.3689 25.3775ZM103.38 25.7115C104.049 25.7635 104.718 25.8136 105.387 25.8618L105.315 26.8592C104.644 26.8108 103.973 26.7606 103.303 26.7085L103.38 25.7115ZM107.395 26.0009C108.064 26.0454 108.734 26.088 109.403 26.1288L109.343 27.127C108.671 27.0861 108 27.0433 107.328 26.9987L107.395 26.0009ZM111.412 26.2455C112.082 26.2826 112.752 26.3178 113.422 26.3511L113.373 27.3499C112.701 27.3164 112.029 27.2812 111.357 27.244L111.412 26.2455ZM115.433 26.4454C116.103 26.475 116.773 26.5027 117.443 26.5286L117.405 27.5279C116.733 27.5019 116.061 27.4741 115.389 27.4445L115.433 26.4454ZM119.455 26.6006C120.125 26.6227 120.796 26.6429 121.466 26.6613L121.439 27.661C120.767 27.6425 120.094 27.6222 119.422 27.6L119.455 26.6006ZM123.478 26.7109C124.149 26.7256 124.82 26.7384 125.491 26.7493L125.474 27.7491C124.802 27.7382 124.129 27.7254 123.457 27.7107L123.478 26.7109ZM127.503 26.7764C128.174 26.7836 128.845 26.7889 129.515 26.7924L129.51 27.7924C128.838 27.7889 128.165 27.7836 127.492 27.7764L127.503 26.7764ZM131.528 26.7972C132.199 26.7969 132.87 26.7947 133.541 26.7907L133.547 27.7907C132.874 27.7947 132.201 27.7969 131.528 27.7972L131.528 26.7972ZM135.553 26.7731C136.224 26.7653 136.895 26.7557 137.565 26.7442L137.582 27.7441C136.91 27.7556 136.237 27.7652 135.565 27.773L135.553 26.7731ZM139.578 26.7041C140.248 26.6889 140.919 26.6718 141.589 26.6529L141.618 27.6525C140.945 27.6715 140.273 27.6886 139.6 27.7039L139.578 26.7041ZM143.601 26.5904C144.272 26.5677 144.942 26.5432 145.612 26.5168L145.652 27.516C144.979 27.5425 144.307 27.5671 143.635 27.5899L143.601 26.5904ZM147.623 26.4319C148.293 26.4018 148.963 26.3698 149.633 26.3359L149.684 27.3346C149.012 27.3686 148.34 27.4007 147.668 27.4309L147.623 26.4319ZM151.643 26.2286C152.313 26.191 152.982 26.1516 153.652 26.1102L153.714 27.1083C153.042 27.1498 152.371 27.1894 151.699 27.2271L151.643 26.2286ZM155.661 25.9806C156.33 25.9355 156.999 25.8886 157.668 25.8398L157.741 26.8372C157.07 26.8861 156.399 26.9332 155.728 26.9784L155.661 25.9806ZM159.675 25.6879C160.344 25.6354 161.012 25.581 161.681 25.5247L161.765 26.5212C161.094 26.5776 160.424 26.6321 159.753 26.6848L159.675 25.6879ZM163.686 25.3504C164.354 25.2905 165.022 25.2287 165.69 25.165L165.785 26.1605C165.115 26.2243 164.445 26.2863 163.775 26.3464L163.686 25.3504ZM167.693 24.9684C168.36 24.901 169.028 24.8317 169.695 24.7606L169.801 25.755C169.132 25.8263 168.463 25.8958 167.793 25.9633L167.693 24.9684ZM171.695 24.5417C172.362 24.4669 173.028 24.3902 173.695 24.3117L173.812 25.3048C173.144 25.3836 172.475 25.4605 171.807 25.5355L171.695 24.5417ZM175.693 24.0705C176.358 23.9883 177.024 23.9042 177.689 23.8183L177.817 24.81C177.15 24.8962 176.483 24.9805 175.815 25.063L175.693 24.0705ZM179.685 23.5548C180.349 23.4652 181.014 23.3737 181.678 23.2804L181.817 24.2706C181.151 24.3643 180.485 24.456 179.818 24.5459L179.685 23.5548ZM183.671 22.9948C184.334 22.8977 184.998 22.7988 185.661 22.6981L185.811 23.6868C185.146 23.7878 184.481 23.8869 183.815 23.9842L183.671 22.9948ZM187.65 22.3903C188.313 22.2859 188.975 22.1796 189.637 22.0715L189.799 23.0584C189.134 23.1668 188.47 23.2734 187.806 23.3781L187.65 22.3903ZM191.623 21.7416C192.284 21.6298 192.945 21.5162 193.606 21.4006L193.778 22.3857C193.116 22.5016 192.452 22.6155 191.789 22.7276L191.623 21.7416ZM195.588 21.0487C196.248 20.9296 196.908 20.8086 197.567 20.6857L197.75 21.6688C197.089 21.792 196.427 21.9133 195.765 22.0328L195.588 21.0487ZM199.545 20.3117C200.203 20.1852 200.862 20.0569 201.52 19.9267L201.714 20.9077C201.054 21.0382 200.394 21.1669 199.733 21.2937L199.545 20.3117ZM203.494 19.5306C204.151 19.3968 204.808 19.2612 205.464 19.1237L205.669 20.1025C205.011 20.2403 204.352 20.3763 203.693 20.5105L203.494 19.5306ZM207.433 18.7057C207.761 18.6351 208.089 18.5641 208.417 18.4926L208.63 19.4696C208.301 19.5413 207.972 19.6126 207.643 19.6833L207.433 18.7057ZM208.417 18.4926L209.403 18.2776L209.616 19.2546L208.63 19.4696L208.417 18.4926ZM211.374 17.8475L213.346 17.4175L213.559 18.3945L211.587 18.8245L211.374 17.8475ZM215.317 16.9874L217.289 16.5574L217.502 17.5344L215.53 17.9644L215.317 16.9874ZM219.26 16.1273L221.232 15.6973L221.445 16.6743L219.473 17.1044L219.26 16.1273ZM223.203 15.2672L225.175 14.8372L225.388 15.8142L223.417 16.2443L223.203 15.2672ZM227.147 14.4071L229.118 13.9771L229.331 14.9541L227.36 15.3842L227.147 14.4071ZM231.09 13.5471L233.061 13.117L233.274 14.094L231.303 14.5241L231.09 13.5471ZM235.033 12.687L237.004 12.2569L237.217 13.2339L235.246 13.664L235.033 12.687ZM238.976 11.8269L240.948 11.3968L241.161 12.3738L239.189 12.8039L238.976 11.8269ZM242.919 10.9668L244.891 10.5367L245.104 11.5138L243.132 11.9438L242.919 10.9668ZM246.862 10.1067L248.834 9.67664L249.047 10.6537L247.075 11.0837L246.862 10.1067ZM250.805 9.24659L252.777 8.81654L252.99 9.79357L251.018 10.2236L250.805 9.24659ZM254.748 8.3865L256.72 7.95645L256.933 8.93348L254.962 9.36353L254.748 8.3865ZM258.692 7.52641L260.663 7.09636L260.876 8.07339L258.905 8.50343L258.692 7.52641ZM262.635 6.66631L264.606 6.23627L264.819 7.21329L262.848 7.64334L262.635 6.66631ZM266.578 5.80622L268.549 5.37617L268.762 6.3532L266.791 6.78325L266.578 5.80622ZM270.521 4.94613L272.492 4.51608L272.706 5.49311L270.734 5.92316L270.521 4.94613ZM274.464 4.08603L276.436 3.65599L276.649 4.63301L274.677 5.06306L274.464 4.08603ZM278.407 3.22594L279.393 3.01092L279.606 3.98795L278.62 4.20297L278.407 3.22594Z" fill="#EE1313"/>
</svg>
