<svg width="15" height="19" viewBox="0 0 15 19" fill="none" xmlns="http://www.w3.org/2000/svg">
<path d="M13.7998 7.95455C13.7998 13.3636 7.36375 18 7.36375 18C7.36375 18 0.927734 13.3636 0.927734 7.95455C0.927734 6.11009 1.60581 4.34117 2.8128 3.03694C4.01979 1.73271 5.65682 1 7.36375 1C9.07069 1 10.7077 1.73271 11.9147 3.03694C13.1217 4.34117 13.7998 6.11009 13.7998 7.95455Z" stroke="#CE313C" stroke-linecap="round" stroke-linejoin="round"/>
<path d="M7.36409 10.4444C8.54893 10.4444 9.50943 9.38728 9.50943 8.08328C9.50943 6.77927 8.54893 5.72217 7.36409 5.72217C6.17925 5.72217 5.21875 6.77927 5.21875 8.08328C5.21875 9.38728 6.17925 10.4444 7.36409 10.4444Z" stroke="#CE313C" stroke-linecap="round" stroke-linejoin="round"/>
</svg>
