<svg width="13" height="13" viewBox="0 0 13 13" fill="none" xmlns="http://www.w3.org/2000/svg">
<path d="M2.31445 4.0741C2.43214 4.01289 2.54019 4 2.65402 4C3.68235 4 4.71069 4 5.73903 4C7.14358 4 8.54814 4 9.9527 4C10.0858 4 10.2151 4.01128 10.3444 4.07733C10.3212 4.09827 10.3 4.1176 10.2788 4.13532C9.08643 5.07772 7.89217 6.02012 6.69791 6.96251C6.47218 7.14133 6.18663 7.14294 5.96476 6.96735C4.77436 6.01689 3.58203 5.06966 2.39163 4.12243C2.3704 4.10632 2.34532 4.09343 2.31445 4.0741Z" fill="#FF0000"/>
<path d="M2.29688 9.07622C3.24418 8.32874 4.17991 7.59093 5.12335 6.84668C5.24297 6.94011 5.35873 7.03194 5.47449 7.12376C5.61533 7.23492 5.75232 7.34607 5.89316 7.45723C6.15555 7.66181 6.50669 7.66181 6.76908 7.45561C7.01796 7.26069 7.26299 7.06416 7.51959 6.85957C8.45146 7.6006 9.3814 8.34002 10.321 9.08749C10.2187 9.14065 10.1145 9.15515 10.0065 9.15515C9.3351 9.15515 8.66176 9.15515 7.99035 9.15515C6.21536 9.15515 4.44037 9.15515 2.66538 9.15515C2.53997 9.15676 2.41842 9.14227 2.29688 9.07622Z" fill="#FF0000"/>
<path d="M2.02015 4.38037C2.94237 5.11335 3.85495 5.83988 4.77717 6.57125C3.86267 7.30744 2.93466 8.02753 2.02015 8.77017C2.01436 8.72346 2.00086 8.66546 2.00086 8.60747C2.00086 7.61835 2.00086 6.62763 2.00086 5.6369C2.00086 5.27122 1.99893 4.90715 2.00086 4.54146C2.00279 4.48508 2.01436 4.4287 2.02015 4.38037Z" fill="#FF0000"/>
<path d="M10.6435 4.37402C10.6455 5.84803 10.6455 7.31559 10.6435 8.79121C9.70587 8.04535 8.79136 7.31721 7.86914 6.58423C8.78558 5.84964 9.71166 5.12794 10.6435 4.37402Z" fill="#FF0000"/>
</svg>
