<svg width="13" height="13" viewBox="0 0 13 13" fill="none" xmlns="http://www.w3.org/2000/svg">
<path fill-rule="evenodd" clip-rule="evenodd" d="M9.0858 2.97659C9.04872 2.94674 9.01165 2.91689 8.97478 2.88686L8.67953 2.69509L8.398 3.12856C9.42512 3.80575 10.1319 4.66921 10.4669 5.74548C10.8029 6.82465 10.6601 7.78888 10.1146 8.64381L10.6362 8.98259L10.7955 8.73738C10.7984 8.72935 10.8011 8.72117 10.8037 8.71297L10.8037 8.71295L10.8037 8.71293L10.8037 8.71291C10.8094 8.69538 10.815 8.67782 10.8234 8.66176C11.214 7.91349 11.3354 7.09107 11.1634 6.19379C10.9396 5.02531 10.3203 4.01316 9.31302 3.16252C9.23835 3.09942 9.16206 3.038 9.0858 2.97659ZM3.45037 1.6705L3.45037 1.6705C3.44707 1.67206 3.44378 1.67361 3.44083 1.67536L3.19309 2.05679L3.14198 2.16655C3.10302 2.24996 3.06406 2.33338 3.02646 2.41749C2.65118 3.25668 2.49363 4.16212 2.5505 5.12917C2.6199 6.31392 2.9826 7.46256 3.68277 8.5627C4.14911 9.29539 4.72705 9.94852 5.44708 10.4964C5.45892 10.5054 5.46907 10.5165 5.47925 10.5276C5.48411 10.5329 5.48896 10.5382 5.49402 10.5433L5.85488 10.7777C5.89029 10.7866 5.9257 10.7964 5.96111 10.8063L5.96113 10.8063L5.96115 10.8063C6.03894 10.8278 6.11672 10.8494 6.19446 10.8617C6.55041 10.918 6.88639 10.8815 7.21917 10.8259C7.51249 10.7768 7.67257 10.6133 7.73373 10.3514C7.80207 10.0584 7.78188 9.77781 7.551 9.48336C7.2344 9.07958 6.90642 8.68507 6.5354 8.3209C6.46272 8.24968 6.35151 8.19934 6.25228 8.16684C6.15752 8.13571 6.05333 8.1306 5.95673 8.13139C5.7185 8.13335 5.48107 8.14126 5.24561 8.15549C5.17185 8.15988 5.12825 8.14299 5.09612 8.07718C5.08987 8.06443 5.08154 8.0523 5.07319 8.04014L5.07318 8.04013C5.0672 8.03142 5.06121 8.0227 5.05596 8.01371C4.58141 7.19744 4.2719 6.35472 4.15909 5.48169C4.1043 5.05795 4.08649 4.63904 4.14757 4.23188C4.15661 4.17092 4.17857 4.14393 4.24971 4.14249C4.3867 4.13984 4.52306 4.13098 4.65695 4.11587C4.82357 4.09703 4.9901 4.07619 5.15143 4.04326C5.29502 4.01392 5.40012 3.93865 5.44668 3.80232C5.47094 3.73133 5.4998 3.6623 5.52866 3.59328L5.52866 3.59327L5.52867 3.59326C5.55433 3.5319 5.57998 3.47054 5.6024 3.4078C5.71991 3.07931 5.8352 2.74918 5.86998 2.39078C5.87814 2.3064 5.88293 2.20782 5.8443 2.12869C5.76665 1.9696 5.66913 1.81309 5.55918 1.66711C5.41433 1.47502 5.2161 1.35402 4.97405 1.33026C4.65655 1.29914 4.34523 1.3009 4.04652 1.35791C3.81472 1.4024 3.5936 1.46313 3.46876 1.65786C3.46504 1.66359 3.45769 1.66705 3.45037 1.6705L3.45037 1.6705ZM9.0372 7.96825L8.52527 7.63575C8.85208 7.14084 8.94914 6.58097 8.75229 5.94758C8.55528 5.3137 8.13087 4.81414 7.52664 4.4277L7.80207 4.00363C9.26074 4.84624 9.94135 6.72627 9.0372 7.96825ZM6.9336 6.62207L7.45193 6.95872C7.45711 6.95532 7.46156 6.95275 7.46536 6.95056C7.47199 6.94674 7.47662 6.94407 7.47964 6.94012C7.84436 6.45182 7.63739 5.71946 6.99881 5.32485C6.9562 5.29853 6.93194 5.30214 6.90922 5.33639C6.86156 5.40872 6.813 5.4804 6.76444 5.55208C6.73104 5.60139 6.69763 5.6507 6.66452 5.70023C6.66015 5.7067 6.65917 5.71527 6.65823 5.72345C6.65782 5.72702 6.65742 5.73052 6.65675 5.73373C7.0209 5.90846 7.20606 6.30958 6.9336 6.62207Z" fill="#FF0000"/>
</svg>
