<svg width="30" height="30" viewBox="0 0 30 30" fill="none" xmlns="http://www.w3.org/2000/svg">
<g id="Group 5121">
<path id="3050437 1 (Traced)" fill-rule="evenodd" clip-rule="evenodd" d="M13.1128 0.125518C0.768547 1.73388 -4.39285 16.7706 4.38586 25.5496C12.3621 33.5261 26.0104 30.1012 29.2752 19.3037C32.385 9.01942 23.7244 -1.25712 13.1128 0.125518ZM16.4992 2.03031C25.5956 3.08126 30.7983 13.165 26.3998 21.2197C21.4671 30.2529 8.4361 30.2512 3.50248 21.2168C-1.54927 11.9661 6.00257 0.817627 16.4992 2.03031ZM14.4405 9.49456C14.0016 9.76215 14.0182 9.62027 14.0182 13.1148C14.0182 16.6093 14.0016 16.4674 14.4405 16.735C14.8639 16.9932 15.5173 16.8426 15.7696 16.4287C15.9505 16.1322 15.9505 10.0974 15.7696 9.80086C15.5173 9.38696 14.8639 9.23638 14.4405 9.49456ZM14.2947 19.0102L14.0044 19.3004L14.0275 19.7089C14.0875 20.7718 15.308 21.0113 15.8015 20.057C16.2888 19.1147 15.0504 18.2544 14.2947 19.0102Z" fill="#FF1313"/>
</g>
</svg>
