<svg width="17" height="17" viewBox="0 0 17 17" fill="none" xmlns="http://www.w3.org/2000/svg">
<path d="M0.700386 8.09096C0.700386 6.97066 0.697617 5.85091 0.70094 4.73061C0.707031 2.46287 2.25818 0.554539 4.47829 0.0948995C4.76515 0.0356447 5.06308 0.00574036 5.35548 0.00518657C7.61823 -0.0020126 9.88099 0.000202642 12.1437 0.000756425C14.4403 0.00131021 16.3497 1.55799 16.806 3.81022C16.8603 4.07936 16.8897 4.35847 16.8908 4.63315C16.8969 6.93799 16.9063 9.24228 16.8908 11.5471C16.8747 13.8547 15.1536 15.8135 12.8742 16.143C12.6017 16.1823 12.3232 16.1906 12.0474 16.1911C9.83558 16.1945 7.62322 16.1928 5.41141 16.1922C3.05119 16.1917 1.04428 14.4484 0.755764 12.1114C0.682665 11.52 0.709247 10.9158 0.703155 10.3172C0.695402 9.5751 0.701494 8.83303 0.701494 8.09096H0.700386ZM15.6453 8.0965C15.6453 6.98118 15.6481 5.86586 15.6425 4.75055C15.6414 4.52571 15.6298 4.297 15.5861 4.07715C15.2471 2.37814 13.8749 1.25064 12.1432 1.24787C9.90813 1.244 7.67306 1.24511 5.43855 1.25009C5.20485 1.25009 4.96728 1.27058 4.73857 1.31765C3.07833 1.65933 1.95858 3.0233 1.95249 4.72507C1.94418 6.96955 1.94252 9.21403 1.95249 11.4585C1.96135 13.4195 3.45656 14.9352 5.38483 14.9418C7.66143 14.9496 9.93748 14.9429 12.2141 14.9429C12.6521 14.9429 13.0752 14.8632 13.4806 14.6992C14.8191 14.1576 15.6409 12.9172 15.6448 11.4292C15.6475 10.3183 15.6453 9.20794 15.6448 8.09705L15.6453 8.0965Z" fill="white"/>
<path d="M4.43751 8.10278C4.44305 5.675 6.40011 3.73288 8.83676 3.73731C11.2086 3.74174 13.1612 5.7193 13.1574 8.1133C13.1535 10.5084 11.182 12.4644 8.77806 12.4577C6.39347 12.4511 4.43253 10.4835 4.43751 8.10278ZM11.9097 8.09115C11.9064 6.37055 10.5131 4.98111 8.79467 4.98554C7.06188 4.98997 5.68795 6.37221 5.68961 8.10998C5.69127 9.82559 7.07794 11.2101 8.79301 11.2078C10.5252 11.2056 11.913 9.81784 11.9097 8.09115Z" fill="white"/>
<path d="M13.777 3.73869C13.4326 3.73813 13.1546 3.45847 13.1563 3.11402C13.1579 2.76957 13.4365 2.49268 13.7815 2.49268C14.1215 2.49268 14.4073 2.77898 14.4056 3.11845C14.4039 3.45903 14.1198 3.73979 13.7776 3.73924L13.777 3.73869Z" fill="white"/>
</svg>
