<svg width="427" height="105" viewBox="0 0 427 105" fill="none" xmlns="http://www.w3.org/2000/svg">
<path d="M219.515 17.804C218.605 18.714 217.491 19.169 216.174 19.169C214.857 19.169 213.739 18.714 212.82 17.804C211.91 16.8853 211.455 15.7673 211.455 14.45C211.455 13.1327 211.91 12.019 212.82 11.109C213.739 10.1903 214.857 9.731 216.174 9.731C217.491 9.731 218.605 10.1903 219.515 11.109C220.434 12.019 220.893 13.1327 220.893 14.45C220.893 15.7673 220.434 16.8853 219.515 17.804ZM213.873 16.79C214.497 17.4053 215.264 17.713 216.174 17.713C217.084 17.713 217.847 17.4053 218.462 16.79C219.086 16.166 219.398 15.386 219.398 14.45C219.398 13.514 219.086 12.7383 218.462 12.123C217.847 11.499 217.084 11.187 216.174 11.187C215.264 11.187 214.497 11.499 213.873 12.123C213.258 12.7383 212.95 13.514 212.95 14.45C212.95 15.386 213.258 16.166 213.873 16.79ZM227.652 9.9H229.147V19H227.652V15.061H223.752V19H222.257V9.9H223.752V13.631H227.652V9.9ZM230.225 19V17.622C230.797 17.7 231.221 17.5613 231.499 17.206C231.785 16.8507 231.928 16.1703 231.928 15.165V9.9H238.025V19H236.53V11.33H233.423V15.139C233.423 15.9363 233.336 16.608 233.163 17.154C232.998 17.7 232.76 18.1117 232.448 18.389C232.136 18.6577 231.798 18.8397 231.434 18.935C231.078 19.0217 230.675 19.0433 230.225 19ZM245.768 19L245.131 17.167H241.257L240.62 19H238.995L242.297 9.9H244.091L247.38 19H245.768ZM241.751 15.763H244.637L243.194 11.655L241.751 15.763ZM250.022 8.99V7.768H253.662V8.99H250.022ZM253.818 19V12.825L249.528 19H248.358V9.9H249.853V16.075L254.143 9.9H255.313V19H253.818ZM262.526 9.9H264.021V19H262.526V15.061H258.626V19H257.131V9.9H258.626V13.631H262.526V9.9ZM265.84 15.724V14.372H270.65V15.724H265.84ZM281.437 9.9H282.932V19H272.467V9.9H273.962V17.57H276.952V9.9H278.447V17.57H281.437V9.9ZM291.62 19H289.839L286.251 14.671V19H284.756V9.9H286.251V13.982L289.709 9.9H291.49L287.811 14.333L291.62 19ZM299.419 17.804C298.509 18.714 297.396 19.169 296.078 19.169C294.761 19.169 293.643 18.714 292.724 17.804C291.814 16.8853 291.359 15.7673 291.359 14.45C291.359 13.1327 291.814 12.019 292.724 11.109C293.643 10.1903 294.761 9.731 296.078 9.731C297.396 9.731 298.509 10.1903 299.419 11.109C300.338 12.019 300.797 13.1327 300.797 14.45C300.797 15.7673 300.338 16.8853 299.419 17.804ZM293.777 16.79C294.401 17.4053 295.168 17.713 296.078 17.713C296.988 17.713 297.751 17.4053 298.366 16.79C298.99 16.166 299.302 15.386 299.302 14.45C299.302 13.514 298.99 12.7383 298.366 12.123C297.751 11.499 296.988 11.187 296.078 11.187C295.168 11.187 294.401 11.499 293.777 12.123C293.162 12.7383 292.854 13.514 292.854 14.45C292.854 15.386 293.162 16.166 293.777 16.79ZM300.899 19V17.622C301.471 17.7 301.896 17.5613 302.173 17.206C302.459 16.8507 302.602 16.1703 302.602 15.165V9.9H308.699V19H307.204V11.33H304.097V15.139C304.097 15.9363 304.011 16.608 303.837 17.154C303.673 17.7 303.434 18.1117 303.122 18.389C302.81 18.6577 302.472 18.8397 302.108 18.935C301.753 19.0217 301.35 19.0433 300.899 19ZM316.442 19L315.805 17.167H311.931L311.294 19H309.669L312.971 9.9H314.765L318.054 19H316.442ZM312.425 15.763H315.311L313.868 11.655L312.425 15.763ZM221.52 42L220.54 39.18H214.58L213.6 42H211.1L216.18 28H218.94L224 42H221.52ZM215.34 37.02H219.78L217.56 30.7L215.34 37.02ZM233.805 28H236.105V42H233.805V35.94H227.805V42H225.505V28H227.805V33.74H233.805V28ZM246.804 28V30.2H241.204V42H238.904V28H246.804ZM246.377 42V39.88C247.257 40 247.911 39.7867 248.337 39.24C248.777 38.6933 248.997 37.6467 248.997 36.1V28H258.377V42H256.077V30.2H251.297V36.06C251.297 37.2867 251.164 38.32 250.897 39.16C250.644 40 250.277 40.6333 249.797 41.06C249.317 41.4733 248.797 41.7533 248.237 41.9C247.691 42.0333 247.071 42.0667 246.377 42ZM269.57 42V32.5L262.97 42H261.17V28H263.47V37.5L270.07 28H271.87V42H269.57ZM277.226 26.6V24.72H282.826V26.6H277.226ZM283.066 42V32.5L276.466 42H274.666V28H276.966V37.5L283.566 28H285.366V42H283.066ZM294.782 42.26C292.675 42.26 290.928 41.5667 289.542 40.18C288.155 38.78 287.462 37.0533 287.462 35C287.462 32.9467 288.155 31.2267 289.542 29.84C290.928 28.44 292.675 27.74 294.782 27.74C296.048 27.74 297.215 28.04 298.282 28.64C299.362 29.24 300.202 30.0533 300.802 31.08L298.802 32.24C298.428 31.5467 297.882 31 297.162 30.6C296.455 30.1867 295.662 29.98 294.782 29.98C293.288 29.98 292.075 30.4533 291.142 31.4C290.222 32.3467 289.762 33.5467 289.762 35C289.762 36.4533 290.222 37.6533 291.142 38.6C292.075 39.5467 293.288 40.02 294.782 40.02C295.662 40.02 296.462 39.82 297.182 39.42C297.902 39.0067 298.442 38.4533 298.802 37.76L300.802 38.9C300.215 39.9267 299.382 40.7467 298.302 41.36C297.235 41.96 296.062 42.26 294.782 42.26ZM313.273 42H310.533L305.013 35.34V42H302.713V28H305.013V34.28L310.333 28H313.072L307.413 34.82L313.273 42ZM325.272 40.16C323.872 41.56 322.159 42.26 320.132 42.26C318.105 42.26 316.385 41.56 314.972 40.16C313.572 38.7467 312.872 37.0267 312.872 35C312.872 32.9733 313.572 31.26 314.972 29.86C316.385 28.4467 318.105 27.74 320.132 27.74C322.159 27.74 323.872 28.4467 325.272 29.86C326.685 31.26 327.392 32.9733 327.392 35C327.392 37.0267 326.685 38.7467 325.272 40.16ZM316.592 38.6C317.552 39.5467 318.732 40.02 320.132 40.02C321.532 40.02 322.705 39.5467 323.652 38.6C324.612 37.64 325.092 36.44 325.092 35C325.092 33.56 324.612 32.3667 323.652 31.42C322.705 30.46 321.532 29.98 320.132 29.98C318.732 29.98 317.552 30.46 316.592 31.42C315.645 32.3667 315.172 33.56 315.172 35C315.172 36.44 315.645 37.64 316.592 38.6ZM337.39 28V30.2H331.79V42H329.49V28H337.39ZM349.901 40.16C348.501 41.56 346.787 42.26 344.761 42.26C342.734 42.26 341.014 41.56 339.601 40.16C338.201 38.7467 337.501 37.0267 337.501 35C337.501 32.9733 338.201 31.26 339.601 29.86C341.014 28.4467 342.734 27.74 344.761 27.74C346.787 27.74 348.501 28.4467 349.901 29.86C351.314 31.26 352.021 32.9733 352.021 35C352.021 37.0267 351.314 38.7467 349.901 40.16ZM341.221 38.6C342.181 39.5467 343.361 40.02 344.761 40.02C346.161 40.02 347.334 39.5467 348.281 38.6C349.241 37.64 349.721 36.44 349.721 35C349.721 33.56 349.241 32.3667 348.281 31.42C347.334 30.46 346.161 29.98 344.761 29.98C343.361 29.98 342.181 30.46 341.221 31.42C340.274 32.3667 339.801 33.56 339.801 35C339.801 36.44 340.274 37.64 341.221 38.6ZM368.779 28V42H366.479V36.9H364.259L360.879 42H358.279L361.839 36.7C360.919 36.42 360.159 35.8933 359.559 35.12C358.972 34.3333 358.679 33.46 358.679 32.5C358.679 31.2467 359.112 30.1867 359.979 29.32C360.859 28.44 361.925 28 363.179 28H368.779ZM363.179 34.84H366.479V30.16H363.179C362.565 30.16 362.045 30.3867 361.619 30.84C361.192 31.2933 360.979 31.8467 360.979 32.5C360.979 33.1533 361.192 33.7067 361.619 34.16C362.045 34.6133 362.565 34.84 363.179 34.84ZM378.602 34.74C380.029 35.42 380.742 36.5467 380.742 38.12C380.742 39.3467 380.275 40.3467 379.342 41.12C378.422 41.88 377.215 42.26 375.722 42.26C373.162 42.26 371.469 41.18 370.642 39.02L372.622 37.88C373.035 39.36 374.069 40.1 375.722 40.1C376.602 40.1 377.275 39.9133 377.742 39.54C378.209 39.1533 378.442 38.64 378.442 38C378.442 37.3733 378.215 36.8733 377.762 36.5C377.322 36.1133 376.695 35.92 375.882 35.92H374.182V33.84H375.422C376.209 33.84 376.822 33.66 377.262 33.3C377.702 32.94 377.922 32.46 377.922 31.86C377.922 31.26 377.722 30.7867 377.322 30.44C376.922 30.08 376.349 29.9 375.602 29.9C374.215 29.9 373.282 30.5333 372.802 31.8L370.842 30.66C371.749 28.7133 373.335 27.74 375.602 27.74C376.975 27.74 378.089 28.1133 378.942 28.86C379.795 29.5933 380.222 30.5533 380.222 31.74C380.222 33.06 379.682 34.06 378.602 34.74ZM382.752 42V28H385.052V32.8H387.912C389.232 32.8 390.332 33.2467 391.212 34.14C392.105 35.02 392.552 36.1067 392.552 37.4C392.552 38.6933 392.105 39.7867 391.212 40.68C390.332 41.56 389.232 42 387.912 42H382.752ZM393.912 42V28H396.212V42H393.912ZM385.052 39.84H387.912C388.592 39.84 389.152 39.6133 389.592 39.16C390.032 38.6933 390.252 38.1067 390.252 37.4C390.252 36.6933 390.032 36.1133 389.592 35.66C389.152 35.1933 388.592 34.96 387.912 34.96H385.052V39.84ZM409.581 42H406.841L401.321 35.34V42H399.021V28H401.321V34.28L406.641 28H409.381L403.721 34.82L409.581 42ZM420.485 42L419.505 39.18H413.545L412.565 42H410.065L415.145 28H417.905L422.965 42H420.485ZM414.305 37.02H418.745L416.525 30.7L414.305 37.02Z" fill="black"/>
<path d="M188.399 11.1294H194.042V37.2545H188.399V33.4925C186.274 36.4534 183.226 37.9338 179.255 37.9338C175.668 37.9338 172.602 36.6101 170.059 33.9628C167.517 31.2806 166.245 28.0237 166.245 24.192C166.245 20.3255 167.517 17.0685 170.059 14.4212C172.602 11.7739 175.668 10.4502 179.255 10.4502C183.226 10.4502 186.274 11.9132 188.399 14.8392V11.1294ZM174.239 30.2008C175.807 31.7683 177.775 32.552 180.144 32.552C182.512 32.552 184.48 31.7683 186.048 30.2008C187.615 28.5984 188.399 26.5955 188.399 24.192C188.399 21.7885 187.615 19.803 186.048 18.2355C184.48 16.6331 182.512 15.832 180.144 15.832C177.775 15.832 175.807 16.6331 174.239 18.2355C172.672 19.803 171.888 21.7885 171.888 24.192C171.888 26.5955 172.672 28.5984 174.239 30.2008Z" fill="black"/>
<path d="M152.279 37.9338C148.343 37.9338 145.051 36.6101 142.404 33.9628C139.791 31.3154 138.485 28.0585 138.485 24.192C138.485 20.2906 139.791 17.0337 142.404 14.4212C145.051 11.7739 148.343 10.4502 152.279 10.4502C154.822 10.4502 157.138 11.0598 159.228 12.279C161.318 13.4981 162.886 15.1353 163.931 17.1905L159.071 20.012C158.479 18.758 157.573 17.7826 156.354 17.086C155.17 16.3545 153.794 15.9887 152.227 15.9887C149.928 15.9887 147.994 16.7725 146.427 18.34C144.894 19.9075 144.128 21.8581 144.128 24.192C144.128 26.5258 144.894 28.4765 146.427 30.044C147.994 31.6115 149.928 32.3953 152.227 32.3953C153.759 32.3953 155.135 32.0295 156.354 31.298C157.608 30.5665 158.549 29.5912 159.176 28.372L164.035 31.1413C162.92 33.2313 161.318 34.8859 159.228 36.105C157.138 37.3242 154.822 37.9338 152.279 37.9338Z" fill="black"/>
<path d="M131.433 11.1294H137.441L127.409 38.0905C124.901 44.8482 120.652 48.0528 114.66 47.7045V42.4272C116.437 42.5317 117.865 42.1486 118.945 41.2777C120.025 40.4417 120.913 39.1181 121.61 37.3067L121.871 36.7842L110.794 11.1294H116.959L124.745 30.0962L131.433 11.1294Z" fill="black"/>
<path d="M101.603 0.679199H107.246V37.2543H101.603V33.4923C99.4783 36.4531 96.4303 37.9336 92.4593 37.9336C88.8715 37.9336 85.8061 36.6099 83.2633 33.9625C80.7205 31.2804 79.449 28.0234 79.449 24.1918C79.449 20.3253 80.7205 17.0683 83.2633 14.421C85.8061 11.7736 88.8715 10.45 92.4593 10.45C96.4303 10.45 99.4783 11.913 101.603 14.839V0.679199ZM87.4433 30.2005C89.0108 31.768 90.9789 32.5518 93.3476 32.5518C95.7163 32.5518 97.6843 31.768 99.2518 30.2005C100.819 28.5982 101.603 26.5953 101.603 24.1918C101.603 21.7883 100.819 19.8028 99.2518 18.2353C97.6843 16.6329 95.7163 15.8317 93.3476 15.8317C90.9789 15.8317 89.0108 16.6329 87.4433 18.2353C85.8758 19.8028 85.0921 21.7883 85.0921 24.1918C85.0921 26.5953 85.8758 28.5982 87.4433 30.2005Z" fill="black"/>
<path d="M68.671 11.1294H74.314V37.2545H68.671V33.9105C66.9641 36.5926 64.2645 37.9337 60.5722 37.9337C57.5765 37.9337 55.1556 36.9758 53.3094 35.06C51.4632 33.1441 50.5402 30.5142 50.5402 27.1702V11.1294H56.1832V26.5954C56.1832 28.5461 56.7057 30.0439 57.7507 31.089C58.7957 32.134 60.2239 32.6565 62.0352 32.6565C64.0207 32.6565 65.623 32.0469 66.8422 30.8277C68.0614 29.5737 68.671 27.6753 68.671 25.1324V11.1294Z" fill="black"/>
<path d="M45.6899 16.5635H39.2109V29.1035C39.2109 30.1834 39.4547 30.9671 39.9424 31.4548C40.4301 31.9076 41.1442 32.1689 42.0847 32.2385C43.06 32.2734 44.2617 32.256 45.6899 32.1863V37.2546C41.3706 37.7771 38.2704 37.4113 36.3894 36.1573C34.5084 34.8685 33.5679 32.5172 33.5679 29.1035V16.5635H28.7609V11.1295H33.5679V5.48646L39.2109 3.81445V11.1295H45.6899V16.5635Z" fill="black"/>
<path d="M14.1075 37.9336C10.5894 37.9336 7.59369 37.1324 5.12052 35.5301C2.68217 33.9278 0.975336 31.7333 0 28.9466L5.17276 25.9161C6.63577 30.0264 9.66628 32.0816 14.2643 32.0816C16.5285 32.0816 18.2179 31.6462 19.3326 30.7753C20.4821 29.8697 21.0568 28.7028 21.0568 27.2746C21.0568 25.7767 20.4472 24.6447 19.2281 23.8783C18.0089 23.0772 15.8492 22.2063 12.749 21.2658C11.0074 20.7433 9.59661 20.2556 8.51678 19.8028C7.43694 19.35 6.28744 18.723 5.06827 17.9218C3.88393 17.0858 2.99568 16.0582 2.40351 14.839C1.81134 13.6199 1.51525 12.1917 1.51525 10.5545C1.51525 7.31502 2.66476 4.75476 4.96376 2.87376C7.26277 0.957919 10.032 0 13.2715 0C16.1975 0 18.7578 0.714086 20.9523 2.14226C23.1468 3.57043 24.8362 5.53852 26.0206 8.04653L20.9523 10.9725C19.4196 7.55886 16.8594 5.85202 13.2715 5.85202C11.5299 5.85202 10.1365 6.27002 9.09153 7.10602C8.04652 7.90719 7.52402 9.00445 7.52402 10.3978C7.52402 11.7563 8.04652 12.8361 9.09153 13.6373C10.1714 14.4036 12.1046 15.2222 14.8913 16.0931C16.2846 16.5459 17.2948 16.8942 17.9218 17.1381C18.5836 17.3471 19.4893 17.6954 20.6388 18.1831C21.8231 18.6707 22.7114 19.1584 23.3036 19.6461C23.8957 20.1337 24.5227 20.7433 25.1846 21.4748C25.8812 22.2063 26.3689 23.0423 26.6476 23.9828C26.9262 24.9233 27.0656 25.9857 27.0656 27.1701C27.0656 30.4793 25.8638 33.1092 23.4603 35.0599C21.0916 36.9757 17.9741 37.9336 14.1075 37.9336Z" fill="black"/>
<path d="M12.6835 71.5906C12.1643 71.2746 9.46672 69.1334 9.28816 69.0441C7.1454 67.3478 7.18676 67.7696 5.044 66.0732C4.24046 65.4483 3.93937 65.0539 3.40368 64.1611C3.3144 63.9826 3.40368 63.6254 3.58224 63.4469C3.67152 63.3576 4.11793 63.3576 4.20721 63.4469C6.79638 65.4111 9.38556 67.3753 11.9747 69.3395C14.1175 70.9465 16.2603 72.6429 18.5816 73.9821C22.6885 76.3035 26.9741 78.3569 31.1703 80.589C35.5451 82.821 39.8306 85.2316 44.2054 87.3744C50.2766 90.3207 56.437 92.9991 62.5082 95.9454C65.0974 97.1954 66.1688 96.124 66.9723 93.9812C67.5973 92.2849 67.4187 90.3207 67.7758 88.4458C68.8472 83.2674 70.0972 78.0891 71.2578 73C71.7042 70.8573 72.1506 68.7145 72.5078 66.5717C72.5971 65.9468 72.3292 65.1432 71.8828 64.5183C71.615 64.0718 70.9007 63.7147 70.4543 63.7147C68.7579 63.8933 67.0616 64.2504 65.3652 64.6075C63.0439 65.0539 58.8477 65.3218 57.7763 65.5004C57.5977 65.5004 57.5084 65.5004 57.3299 65.5004C56.6156 65.4111 56.0799 65.6789 54.9193 65.5004C54.1157 65.3218 53.9372 65.4111 52.8658 65.3218C44.1162 65.2325 44.1162 65.2325 39.9199 65.5004C36.7058 65.6789 33.5809 66.036 30.3668 66.2146C27.7776 66.2146 25.2777 66.5717 22.3314 67.1074C21.885 67.1074 21.7064 66.9289 21.5279 66.2146C21.6172 65.5004 21.885 65.3218 22.4207 65.3218C30.0989 64.7861 37.8664 64.3397 45.5447 63.8933C46.6161 63.804 47.7767 63.8933 48.8481 63.804C52.5979 63.4469 56.3478 62.8219 60.0976 62.7326C63.0439 62.6433 65.4545 61.6612 67.5973 59.8756C68.3115 59.2506 68.6687 58.1793 68.9365 57.2864C69.5615 55.0544 71.2578 54.3401 73.222 53.8044C73.4899 53.7152 73.9363 53.5366 73.9363 53.2688C73.9363 53.0009 73.5792 52.8223 73.3113 52.7331C72.5078 51.9295 71.9721 50.4117 71.7935 49.2511C71.4364 46.2155 73.0435 44.2513 76.079 43.6263C77.1504 43.4478 77.954 43.7156 79.1146 44.4299C80.6324 45.5012 81.5252 46.6619 81.5252 48.5368C81.2574 49.876 81.0788 51.5724 79.4717 52.7331C79.3825 52.7331 79.561 53.2688 79.6503 53.358C80.0967 53.6259 80.6324 53.8044 81.0788 53.8937C83.8466 54.3401 85.5429 56.3043 87.5071 58.09C88.9356 59.3399 91.1677 59.697 93.0426 60.5006C94.114 60.947 95.1853 61.4827 96.346 61.9291C96.7031 62.1076 97.1495 62.3755 97.5067 62.3755C104.649 62.3755 111.792 62.2862 118.934 62.4648C123.22 62.5541 127.595 63.0005 131.88 63.3576C132.505 63.4469 133.755 63.6254 133.666 64.429C133.666 64.8754 132.505 64.7861 131.969 64.6968C126.88 63.8933 122.238 63.7147 117.416 63.5362C114.381 63.4469 111.256 63.5362 108.22 63.5362C104.649 63.5362 101.167 63.9826 97.5959 63.9826C97.4174 63.9826 97.1495 64.0718 97.1495 64.2504C96.8817 65.7682 95.6317 65.4111 95.0068 64.9647C92.239 62.9112 89.1142 63.3576 86.0786 63.5362C85.8108 63.5362 85.5429 63.6254 85.1858 63.6254C83.043 63.7147 82.9537 63.8933 83.7573 65.8575C84.8287 68.4467 85.7215 71.0358 86.9714 73.4464C88.0428 75.6785 89.4713 77.732 90.7213 79.8747C92.1498 82.5532 93.0426 85.4102 92.9533 88.5351C92.864 92.7313 92.5069 92.7313 88.9356 94.7848C86.9714 96.5704 88.2214 95.499 85.8108 96.9275C85.4536 97.2847 85.0072 97.4632 84.6501 97.6418C83.3109 98.3561 83.1323 99.4274 83.4001 100.677C83.4001 101.302 83.4001 100.945 83.4894 101.392C83.668 103.802 84.293 103.981 85.1858 103.713C89.2927 102.731 93.3997 100.856 97.5067 99.6953C102.328 98.356 107.773 96.5704 112.505 95.0526C115.451 94.1598 118.398 93.1777 121.344 92.1956C125.63 90.8564 129.826 89.6957 134.111 88.3565C136.433 87.6422 136.343 87.5529 138.665 86.928C141.075 86.2137 146.075 84.8745 148.486 84.2495C152.236 83.1781 155.985 82.1067 159.735 80.9461C163.842 79.6961 167.771 77.9998 171.878 76.6606C173.485 76.1249 175.092 75.5892 176.699 75.232C180.806 74.2499 184.734 73.0893 188.841 72.4643C190.448 72.1965 191.341 72.1072 193.394 71.9286C193.841 72.0179 194.019 72.1965 193.93 72.7322C193.305 72.9107 193.437 73.0877 191.384 73.5341C189.686 73.5341 189.192 73.6687 185.442 74.383C182.464 75.0297 180.905 75.2771 178.227 76.0806C173.763 77.4198 168.596 78.8743 164.221 80.7492C162.525 81.1956 160.45 81.9282 158.842 82.3746C157.86 82.6424 156.29 83.0278 155.308 83.2957C152.898 84.0992 153.899 83.8125 151.489 84.616C151.221 84.7053 148.786 85.3756 148.518 85.4649C148.25 85.4649 147.7 85.5869 146.82 85.8893C146.002 86.0113 144.877 86.3137 144.698 86.3137C141.727 87.587 142.238 87.1858 138.756 88.4358C136.971 88.8822 133.237 90.0222 131.541 90.5579C128.148 91.54 126.87 92.1223 123.477 93.1044C121.334 93.7293 118.405 94.9633 116.262 95.6776C113.494 96.5704 111.078 97.4632 108.221 98.1775C105.205 99.6953 99.7304 101.124 95.8913 102.195C92.5879 103.088 88.9356 104.427 85.6322 104.695C82.9537 104.963 80.0967 105.499 77.2397 103.892C74.1148 102.195 70.9007 100.767 67.5973 99.4274C65.0081 98.3561 62.2088 97.1061 59.6196 95.9454C54.352 93.5348 49.4731 91.0672 44.2055 88.5673C41.7948 87.4066 39.2858 85.9975 36.8752 84.7475C34.1074 83.319 31.2439 81.8426 28.3869 80.5034C25.0834 78.7177 20.7448 76.2579 17.3521 74.5615M77.6861 63.804C76.4362 63.8933 75.1862 63.8933 73.9363 63.9826C73.7577 63.9826 73.4006 64.3397 73.4006 64.3397C73.4006 66.036 73.847 67.286 74.7398 68.0002C74.7398 68.0895 75.0726 67.7709 75.2755 67.7324C75.9214 67.3465 75.9214 67.7709 76.079 67.8217C76.7933 68.3574 76.8826 68.8038 77.7754 70.0537C78.6682 71.1251 78.4897 71.3037 80.0074 73.0893C81.436 75.4999 82.0609 75.857 82.8645 77.1963C82.9537 77.3748 83.1323 77.6427 82.8645 77.8212C82.5073 77.9105 82.418 77.6427 82.2395 77.5534C81.5252 76.7499 80.9895 75.857 80.2753 75.1428C78.7575 73.4464 77.2397 71.8394 75.6326 70.2323C75.0969 69.6966 74.2041 69.2502 73.7577 70.5001C73.3113 71.8394 72.7756 73.1786 72.3292 74.5178C71.5257 77.107 70.6328 79.6962 70.0972 82.2853C69.3829 85.678 69.0258 89.16 68.4901 92.642C68.4901 92.8206 68.7579 93.0884 68.8472 93.0884C71.8828 92.8206 74.1148 91.3028 75.3648 88.4458C75.9005 87.2851 76.8826 86.303 77.6861 85.1423C77.954 84.6959 78.4896 84.071 78.4004 83.7138C78.1325 82.7317 77.5968 81.9282 77.2397 81.0354C77.1504 80.6783 76.7933 80.4104 77.1504 79.964C77.329 79.8747 77.5075 80.1426 77.5968 80.2318C78.2218 81.1247 78.7575 82.1068 79.2932 83.0889C80.2753 84.6067 81.0788 86.3923 82.3288 87.6422C83.2216 88.6243 85.0072 88.7136 85.9893 89.6064C86.8821 90.4993 87.6857 91.3028 88.9356 91.6599C90.0963 92.017 91.8819 91.3028 91.7033 90.41C91.3462 87.8208 90.9891 85.2316 90.2748 82.7317C89.7392 81.0354 88.6678 79.4283 87.775 77.8212C86.7036 75.857 85.6322 73.8928 84.7394 71.9286C83.668 69.518 82.7752 67.1074 81.7931 64.6968C81.7038 64.429 81.4359 64.0718 81.1681 64.0718C80.0967 63.8933 78.8468 63.8933 77.6861 63.804ZM80.0074 49.6975C80.2753 49.4296 80.3646 47.1083 79.7396 46.4833C78.7575 45.5012 77.6861 44.2513 75.9005 44.6977C74.2934 45.0548 73.4899 46.1262 72.9542 47.644C72.3292 49.5189 72.7756 50.6796 74.2934 51.751C74.8291 52.1081 75.4541 52.5545 75.2755 53.6259C75.2755 53.8044 74.472 54.2509 74.0256 54.5187C72.6863 55.5901 71.2578 56.5722 70.0972 57.7328C69.3829 58.4471 70.0079 58.9828 70.8114 59.3399C71.6149 59.697 72.5971 60.4113 72.6863 61.0363C72.9542 62.3755 74.0256 62.1969 74.6505 62.2862C76.4362 62.3755 78.2218 62.1969 80.0074 61.9291C80.7217 61.8398 81.3467 61.1255 81.9716 60.5899C82.418 60.1435 82.7752 59.1614 83.2216 59.1614C84.293 59.1614 85.4536 59.4292 86.525 59.8756C87.4178 60.2327 88.0428 61.3041 88.9356 61.4827C90.9891 62.0184 93.0426 62.1969 95.0961 62.4648C95.1853 62.4648 95.2746 62.4648 95.4532 62.4648C95.3639 62.3755 95.3639 62.2862 95.2746 62.2862C94.3818 62.0184 93.489 61.572 92.5962 61.3934C89.7392 60.947 87.15 60.0542 85.4536 57.6436C84.2037 55.9472 82.5073 55.0544 80.6324 54.608C78.9361 54.2509 77.8647 53.7152 78.0432 51.751C78.3111 50.9474 78.6682 52.3759 79.2932 50.7689C79.3825 50.501 79.3825 50.501 79.6503 50.1439M79.7396 98.4453C79.2039 95.0526 78.6682 91.7492 78.1325 88.3565C78.1325 88.2672 77.954 88.0886 77.954 87.9994C77.7754 88.1779 77.5968 88.2672 77.4183 88.4458C76.079 89.8743 74.7398 91.3028 73.4006 92.7313C72.6863 93.5348 71.7042 94.1598 71.1685 95.0526C70.4543 96.124 69.9186 97.374 69.2936 98.6239C69.2043 98.8025 69.2043 99.2489 69.2936 99.3382C71.9721 100.499 74.5612 101.659 77.2397 102.82C78.0432 103.177 78.8468 103.534 79.1146 102.195C79.2932 100.945 79.4717 99.6953 79.7396 98.4453ZM82.8645 102.017L82.7752 100.32C82.6859 99.3381 83.043 98.6239 82.1502 98.1775C82.1502 97.8204 81.5252 97.9989 80.9895 97.9989C80.9003 98.2668 80.9002 98.4453 80.811 98.7132C79.9182 100.32 79.6503 101.927 79.9182 103.445C79.9182 103.534 80.3646 103.892 80.4538 103.892C81.6145 104.159 82.6859 104.159 83.4001 103.534L82.8645 102.017ZM79.7396 94.5169C79.7396 95.0526 80.2753 95.8562 80.3646 96.3919C80.3646 96.5704 80.5431 97.0168 80.7217 97.1061C81.0788 97.8204 81.7931 97.7311 82.2395 97.7311C82.5073 97.7311 82.7752 97.374 83.043 97.374C85.0965 97.1954 90.007 94.3384 87.9535 92.1063C84.4715 88.9815 81.6145 88.6243 81.3467 87.2851C81.3467 87.1958 80.0074 85.2316 79.3825 85.1423C77.7754 85.5888 79.2039 91.3921 79.2039 91.4814M67.2401 98.6239C68.7579 100.142 69.4722 97.1061 69.8293 95.8562C70.365 95.5883 70.6329 93.892 70.4543 93.892C70.1864 93.8027 68.4901 94.0705 68.3115 94.2491C67.5973 93.8027 67.5973 94.9633 67.0616 95.499C66.883 95.7669 65.9009 95.9454 66.0795 97.374C66.3473 98.0882 66.7045 98.2668 66.883 98.3561L67.2401 98.6239ZM66.0795 63.3576L66.5259 63.2683C67.5973 62.5541 68.6687 61.9291 69.74 61.2148C69.9186 61.1256 70.0972 60.7684 69.74 60.322C69.2043 60.1434 69.2043 60.322 68.9365 60.4113C67.9544 61.0363 67.0616 61.7505 66.0795 62.3755C65.8116 62.5541 65.5438 62.6433 65.1867 62.8219C65.0974 63.3576 65.3652 63.4469 66.0795 63.3576ZM86.0786 62.2862C87.0607 62.4648 87.5071 62.4648 87.5071 62.1969C87.5071 62.1076 87.4178 62.1076 87.4178 62.0184C86.2572 61.572 85.0072 61.2148 83.8465 60.8577C83.7573 60.8577 83.4001 60.947 83.3109 61.3041C83.4001 61.572 83.5787 61.8398 83.8465 61.8398C84.5608 62.0184 85.4536 62.1969 86.0786 62.2862Z" fill="black"/>
<path d="M76.77 62.5977C79.1806 62.5977 82.484 65.1868 82.9304 67.0617C82.9304 67.2403 82.9304 67.5974 82.8412 67.5974C82.6626 67.6867 82.3055 67.6867 82.2162 67.5974C81.7698 67.2403 81.2341 66.7939 80.9662 66.3475C79.7163 64.1154 77.9307 63.3119 75.5201 63.8476C75.1629 63.9369 74.6272 64.1154 74.4487 63.669C74.538 63.0441 74.9844 63.0441 75.2522 62.9548C75.8772 62.6869 76.5914 62.5977 76.77 62.5977Z" fill="black"/>
<path fill-rule="evenodd" clip-rule="evenodd" d="M76.7694 62.6633C76.5992 62.6633 75.8937 62.751 75.2773 63.0152L75.2748 63.0163L75.2722 63.0171C75.2279 63.0319 75.1765 63.045 75.1254 63.058C75.0974 63.0651 75.0696 63.0722 75.043 63.0795C74.964 63.1013 74.8864 63.1275 74.8153 63.1681C74.6806 63.245 74.5597 63.379 74.5153 63.661C74.5545 63.7504 74.6091 63.8062 74.6721 63.841C74.7402 63.8785 74.823 63.8943 74.9168 63.8943C75.0785 63.8943 75.256 63.8484 75.4184 63.8064C75.4473 63.7989 75.4758 63.7916 75.5036 63.7846L75.5053 63.7842C76.7208 63.5141 77.785 63.5804 78.7049 64.0006C79.6245 64.4207 80.3924 65.1909 81.0221 66.3151C81.283 66.7493 81.8082 67.1883 82.2564 67.5468L82.2592 67.5491L82.2617 67.5516C82.2708 67.5607 82.2951 67.574 82.3403 67.5844C82.3832 67.5942 82.4367 67.5995 82.4946 67.5995C82.6119 67.5995 82.7346 67.5778 82.8113 67.5394L82.8243 67.5329C82.826 67.5294 82.8281 67.5245 82.8304 67.5179C82.8404 67.489 82.8482 67.4449 82.8537 67.3904C82.8641 67.2857 82.8645 67.1595 82.8645 67.0698C82.7547 66.6162 82.4718 66.1143 82.0672 65.6147C81.6609 65.1131 81.1349 64.6174 80.5471 64.1793C79.3695 63.3017 77.9547 62.6633 76.7694 62.6633ZM75.2284 62.894C75.8613 62.6234 76.5827 62.5327 76.7694 62.5327C77.9947 62.5327 79.4369 63.189 80.6252 64.0746C81.2204 64.5182 81.7546 65.0213 82.1687 65.5325C82.5821 66.043 82.8786 66.5652 82.9933 67.047L82.9951 67.0544V67.0635C82.9951 67.1521 82.9951 67.2886 82.9836 67.4034C82.9779 67.4605 82.969 67.5169 82.9539 67.5606C82.9464 67.5822 82.9358 67.6054 82.9199 67.6243C82.9061 67.6406 82.8858 67.6563 82.8591 67.6614C82.758 67.7087 82.6183 67.7301 82.4946 67.7301C82.4296 67.7301 82.366 67.7242 82.3112 67.7117C82.2603 67.7 82.2079 67.6806 82.1723 67.6468C81.7283 67.2916 81.1841 66.8389 80.9096 66.3815L80.9086 66.3798C80.2885 65.2724 79.5388 64.5251 78.6506 64.1194C77.7628 63.7139 76.7292 63.6462 75.5344 63.9115C75.5091 63.9179 75.4824 63.9248 75.4547 63.932C75.2934 63.9739 75.0968 64.0249 74.9168 64.0249C74.8097 64.0249 74.7028 64.0071 74.609 63.9554C74.5139 63.9029 74.4372 63.8182 74.3874 63.6937L74.3809 63.6775L74.3834 63.6602C74.4307 63.3293 74.5754 63.1547 74.7504 63.0547C74.8356 63.0061 74.9254 62.9764 75.0082 62.9536C75.0411 62.9445 75.0717 62.9367 75.1006 62.9294C75.1468 62.9177 75.1887 62.9071 75.2284 62.894Z" fill="black"/>
</svg>
