<svg width="1920" height="862" viewBox="0 0 1920 862" fill="none" xmlns="http://www.w3.org/2000/svg">
<g clip-path="url(#clip0_31_17952)">
<rect width="1920" height="862" fill="white"/>
<g clip-path="url(#clip1_31_17952)">
<rect width="1926" height="881" fill="white"/>
<path d="M1939 -161H-2V1133H1939V-161Z" fill="url(#paint0_linear_31_17952)"/>
<path style="mix-blend-mode:multiply" opacity="0.2" d="M1281 -161C1270 -95.7873 1243.58 -33.1884 1202.98 19.0853C1122.87 122.183 990.047 181.988 859.759 173.577C845.916 172.697 831.968 171.119 817.969 169.23C744.791 159.422 670.215 141.54 604.567 172.102C548.829 198.058 513.198 253.747 462.894 289.071C397.091 335.289 308.516 342.846 231.974 318.184C155.457 293.522 90.6114 239.385 43.2318 174.405C26.8521 151.943 12.3614 128.135 -2 104.25V-161H1281Z" fill="url(#paint1_linear_31_17952)"/>
<g style="mix-blend-mode:overlay">
<path d="M1574 -161C1557.78 -145.917 1538.99 -133.707 1518.05 -125.635C1480.25 -111.018 1437.63 -108.198 1403.32 -86.6482C1358.11 -58.2682 1337.1 -3.70724 1325.71 48.4218C1314.35 100.577 1309.18 155.371 1283.48 202.144C1230.23 299.185 1097.82 332.558 992.837 297.374C922.944 273.935 864.567 226.696 817.497 169.134C793.898 140.262 773.145 108.829 755.238 76.4913C714.767 3.40709 685.086 -77.0761 629.581 -139.502C622.905 -147.03 615.659 -154.222 608 -161H1574Z" fill="#F8E6CB"/>
</g>
<g style="mix-blend-mode:overlay">
<path d="M1939 474.734V1133H992C995.184 1105.24 1001.01 1077.79 1009.76 1051.07C1039.3 960.613 1103.37 881.398 1184.6 832.922C1227.52 807.285 1275.26 790.22 1325.22 784.652C1390.27 777.376 1463.61 786.154 1513.75 744.074C1543.91 718.748 1558.56 680.086 1577.36 645.463C1630.89 546.957 1731.72 471.549 1843.53 463.625C1875.6 461.346 1908.12 465.36 1939 474.734Z" fill="#F8E6CB"/>
</g>
<path style="mix-blend-mode:soft-light" d="M1673 1133H415C418.78 1097.57 427.711 1062.55 440.681 1029.4C471.023 952.023 531.705 878.267 614.057 866.525C649.576 861.457 684.473 868.336 718.258 880.853C766.669 898.774 820.906 884.163 854.121 844.673C877.576 816.82 907.736 794.528 941.624 781.132C1004.38 756.279 1078.57 762.356 1136.43 797.036C1153.6 807.329 1169.34 819.923 1184.54 833.32C1227.77 871.387 1266.63 915.921 1321.07 932.472C1377.69 949.644 1439.56 932.394 1497.58 943.98C1582.62 960.971 1645.12 1038.48 1669.82 1121.52C1670.95 1125.32 1672.02 1129.15 1673 1133Z" fill="url(#paint2_linear_31_17952)"/>
<g filter="url(#filter0_d_31_17952)">
<path d="M1382.74 -126.584C1382.74 -126.584 1063.33 169.881 1354.42 103.253C1645.5 36.6245 1684.14 58.5995 1687.3 150.675C1690.74 250.332 1743.17 243.959 1859.35 164.695C1975.5 85.431 1875.33 313.18 2133 270.659L2118.2 -220L1382.74 -126.562L1382.74 -126.584Z" fill="#F2F2F2"/>
</g>
<g style="mix-blend-mode:overlay">
<path d="M589.547 261.558C600.286 214.058 570.486 166.845 522.986 156.106C475.485 145.366 428.273 175.167 417.533 222.667C406.794 270.167 436.594 317.38 484.095 328.119C531.595 338.859 578.807 309.058 589.547 261.558Z" fill="#F8E6CB"/>
</g>
<g style="mix-blend-mode:overlay">
<path d="M1564.07 531.736C1576.59 520.655 1577.75 501.524 1566.67 489.004C1555.59 476.484 1536.46 475.317 1523.94 486.398C1511.42 497.478 1510.25 516.61 1521.33 529.13C1532.41 541.65 1551.55 542.816 1564.07 531.736Z" fill="#F8E6CB"/>
</g>
<g style="mix-blend-mode:overlay">
<path d="M625.795 756.401C638.315 745.321 639.482 726.189 628.401 713.669C617.321 701.149 598.189 699.983 585.669 711.063C573.149 722.143 571.982 741.275 583.063 753.795C594.143 766.315 613.275 767.482 625.795 756.401Z" fill="#F8E6CB"/>
</g>
<g style="mix-blend-mode:overlay">
<path d="M265 865C265 873.282 258.282 880 250 880C241.718 880 235 873.282 235 865C235 856.718 241.718 850 250 850C258.282 850 265 856.718 265 865Z" fill="#F8E6CB"/>
</g>
<g style="mix-blend-mode:overlay">
<path d="M1703 392C1703 400.282 1696.28 407 1688 407C1679.72 407 1673 400.282 1673 392C1673 383.718 1679.72 377 1688 377C1696.28 377 1703 383.718 1703 392Z" fill="#F8E6CB"/>
</g>
<g style="mix-blend-mode:overlay">
<path d="M428.729 527C428.729 535.282 422.011 542 413.729 542C405.447 542 398.729 535.282 398.729 527C398.729 518.718 405.447 512 413.729 512C422.011 512 428.729 518.718 428.729 527Z" fill="#F8E6CB"/>
</g>
<path d="M227 -192.223C334.62 -192.352 441.309 -142.845 510.63 -60.5927C570.733 10.7445 601.704 101.843 653.261 179.543C704.818 257.269 791.904 325.425 883.677 308.354C946.68 296.637 996.761 246.432 1026.38 189.683C1056.01 132.908 1068.85 69.2266 1084.7 7.20092C1100.57 -54.8247 1120.72 -117.781 1161.77 -166.952C1213.81 -229.262 1298.31 -262.887 1379 -253.421" stroke="#D8D8D8" stroke-miterlimit="10"/>
<path d="M263 -196.206C363.896 -196.335 463.912 -149.956 528.915 -72.9589C585.267 -6.16794 614.298 79.1488 662.623 151.908C710.974 224.694 792.602 288.513 878.633 272.52C937.705 261.539 984.657 214.539 1012.42 161.391C1040.21 108.242 1052.22 48.5826 1067.09 -9.50104C1081.95 -67.5847 1100.86 -126.547 1139.34 -172.564C1188.13 -230.906 1267.35 -262.403 1343 -253.514" stroke="#D8D8D8" stroke-miterlimit="10"/>
<path d="M300 -200.088C393.985 -200.191 487.169 -156.906 547.681 -84.9698C600.179 -22.6013 627.217 57.0918 672.245 125.046C717.273 193.025 793.32 252.627 873.45 237.681C928.482 227.442 972.192 183.535 998.066 133.889C1023.94 84.2423 1035.13 28.545 1048.99 -25.7042C1062.84 -79.9534 1080.45 -135.004 1116.3 -178.005C1161.74 -232.487 1235.54 -261.913 1306 -253.613" stroke="#D8D8D8" stroke-miterlimit="10"/>
<path d="M336 -203.968C423.264 -204.072 509.778 -163.827 565.972 -97.0032C614.696 -39.0304 639.82 35.0142 681.617 98.1631C723.413 161.312 794.031 216.723 868.422 202.851C919.498 193.327 960.105 152.539 984.118 106.393C1008.13 60.2738 1018.55 8.48651 1031.39 -41.9032C1044.27 -92.3188 1060.6 -143.485 1093.87 -183.445C1136.05 -234.093 1204.58 -261.423 1270 -253.711" stroke="#D8D8D8" stroke-miterlimit="10"/>
<path d="M372 -207.961C452.542 -208.064 532.386 -170.975 584.237 -109.358C629.212 -55.9333 652.372 12.3267 690.963 70.5325C729.553 128.738 794.716 179.811 863.368 167.017C910.514 158.229 947.994 120.648 970.145 78.1054C992.323 35.5883 1001.91 -12.1239 1013.78 -58.5955C1025.64 -105.067 1040.74 -152.237 1071.44 -189.042C1110.4 -235.72 1173.62 -260.92 1234 -253.812" stroke="#D8D8D8" stroke-miterlimit="10"/>
<path d="M789.691 1320C771.89 1255.11 758.928 1184.4 783.792 1121.89C816.392 1039.99 906.817 994.098 994.397 983.601C1081.98 973.079 1170.18 990.453 1258.15 997.148C1346.11 1003.84 1440.32 998.053 1512.84 947.821C1613.38 878.173 1646.39 742.445 1737.13 660.414C1812.78 592.033 1926.99 569.463 2023 603.977" stroke="#D8D8D8" stroke-miterlimit="10"/>
<path d="M856.628 1320C839.789 1258.58 827.528 1191.61 851.041 1132.44C881.874 1054.9 967.388 1011.45 1050.21 1001.52C1133.06 991.556 1216.46 1008.01 1299.64 1014.35C1382.83 1020.69 1471.94 1015.2 1540.51 967.648C1635.62 901.695 1666.82 773.205 1752.64 695.557C1824.19 630.821 1932.21 609.449 2023 642.127" stroke="#D8D8D8" stroke-miterlimit="10"/>
<path d="M922.567 1320C906.702 1262.11 895.107 1199.05 917.313 1143.28C946.404 1070.21 1027.08 1029.28 1105.24 1019.92C1183.4 1010.53 1262.08 1026.05 1340.58 1031.99C1419.08 1037.97 1503.14 1032.79 1567.82 987.986C1657.55 925.855 1686.98 804.773 1767.94 731.601C1835.44 670.582 1937.33 650.466 2023 681.26" stroke="#D8D8D8" stroke-miterlimit="10"/>
<path d="M989.505 1320C974.601 1265.66 963.707 1206.44 984.563 1154.1C1011.89 1085.5 1087.65 1047.08 1161.06 1038.29C1234.46 1029.51 1308.36 1044.03 1382.08 1049.64C1455.8 1055.24 1534.74 1050.39 1595.49 1008.32C1679.77 950.007 1707.4 836.321 1783.45 767.645C1846.84 710.363 1942.55 691.476 2023 720.389" stroke="#D8D8D8" stroke-miterlimit="10"/>
<path d="M1056.43 1320C1042.49 1269.11 1032.32 1213.66 1051.8 1164.65C1077.33 1100.42 1148.21 1064.44 1216.86 1056.22C1285.51 1047.97 1354.62 1061.6 1423.56 1066.85C1492.5 1072.1 1566.35 1067.55 1623.18 1028.16C1701.99 973.544 1727.86 867.102 1798.97 802.786C1858.25 749.151 1947.78 731.462 2023 758.538" stroke="#D8D8D8" stroke-miterlimit="10"/>
<path d="M-21.3332 356C-34.3138 401.2 -11.197 450.072 22.3146 483.067C55.8262 516.062 98.7243 537.421 138.157 563.072C177.59 588.723 215.705 621.434 230.625 666.039C257.155 745.398 202.983 826.178 177.151 905.769C138.054 1026.19 168.514 1166.6 254 1260" stroke="#D8D8D8" stroke-miterlimit="10"/>
<path d="M-52.3201 365C-65.3472 410.2 -42.1475 459.072 -8.51578 492.067C25.116 525.062 68.1677 546.421 107.742 572.072C147.316 597.723 185.567 630.434 200.541 675.039C227.166 754.397 172.8 835.178 146.875 914.77C107.638 1035.19 138.208 1175.6 224 1269" stroke="#D8D8D8" stroke-miterlimit="10"/>
<path d="M-82.3332 374C-95.3138 419.25 -72.197 468.176 -38.6854 501.207C-5.17373 534.239 37.7243 555.621 77.1573 581.301C116.59 606.981 154.705 639.727 169.625 684.382C196.155 763.828 141.983 844.698 116.151 924.378C77.0539 1044.93 107.514 1185.5 193 1279" stroke="#D8D8D8" stroke-miterlimit="10"/>
<path d="M-113.333 384C-126.314 429.2 -103.197 478.072 -69.6854 511.067C-36.1738 544.062 6.72424 565.421 46.1573 591.072C85.5904 616.723 123.705 649.434 138.625 694.039C165.155 773.397 110.983 854.178 85.1508 933.77C46.0539 1054.19 76.5143 1194.6 162 1288" stroke="#D8D8D8" stroke-miterlimit="10"/>
<path d="M1488 -644C1494.57 -597.456 1535.6 -562.257 1579.68 -545.794C1623.76 -529.332 1671.64 -527.29 1718.13 -519.951C1764.62 -512.611 1812.76 -498.242 1844.58 -463.611C1901.18 -401.974 1884.6 -306.198 1893.42 -223.033C1906.79 -97.2004 1991.85 18.5532 2108 69" stroke="#D8D8D8" stroke-miterlimit="10"/>
<path d="M1464 -623C1470.57 -576.456 1511.6 -541.257 1555.68 -524.794C1599.76 -508.332 1647.64 -506.29 1694.13 -498.951C1740.59 -491.585 1788.76 -477.242 1820.58 -442.611C1877.18 -380.974 1860.6 -285.198 1869.42 -202.033C1882.79 -76.2003 1967.85 39.5532 2084 90" stroke="#D8D8D8" stroke-miterlimit="10"/>
<path d="M1439 -602C1445.58 -555.456 1486.68 -520.257 1530.83 -503.794C1574.98 -487.332 1622.94 -485.29 1669.5 -477.951C1716.06 -470.585 1764.28 -456.242 1796.15 -421.611C1852.84 -359.974 1836.24 -264.198 1845.07 -181.033C1858.47 -55.2004 1943.66 60.5532 2060 111" stroke="#D8D8D8" stroke-miterlimit="10"/>
<path d="M1415 -581C1421.57 -534.456 1462.6 -499.257 1506.68 -482.794C1550.76 -466.332 1598.64 -464.29 1645.13 -456.951C1691.62 -449.585 1739.76 -435.242 1771.58 -400.611C1828.18 -338.974 1811.6 -243.198 1820.42 -160.033C1833.79 -34.2004 1918.85 81.5532 2035 132" stroke="#D8D8D8" stroke-miterlimit="10"/>
</g>
</g>
<defs>
<filter id="filter0_d_31_17952" x="1209.26" y="-242.74" width="946.48" height="541.48" filterUnits="userSpaceOnUse" color-interpolation-filters="sRGB">
<feFlood flood-opacity="0" result="BackgroundImageFix"/>
<feColorMatrix in="SourceAlpha" type="matrix" values="0 0 0 0 0 0 0 0 0 0 0 0 0 0 0 0 0 0 127 0" result="hardAlpha"/>
<feOffset/>
<feGaussianBlur stdDeviation="11.37"/>
<feColorMatrix type="matrix" values="0 0 0 0 0.156863 0 0 0 0 0.156863 0 0 0 0 0.156863 0 0 0 0.2 0"/>
<feBlend mode="normal" in2="BackgroundImageFix" result="effect1_dropShadow_31_17952"/>
<feBlend mode="normal" in="SourceGraphic" in2="effect1_dropShadow_31_17952" result="shape"/>
</filter>
<linearGradient id="paint0_linear_31_17952" x1="968.5" y1="-161" x2="968.5" y2="1133" gradientUnits="userSpaceOnUse">
<stop stop-color="#F7FFFF"/>
<stop offset="1" stop-color="#E3DBDB"/>
</linearGradient>
<linearGradient id="paint1_linear_31_17952" x1="-2" y1="85.4884" x2="1281" y2="85.4884" gradientUnits="userSpaceOnUse">
<stop stop-color="#D1D5DE"/>
<stop offset="1" stop-color="#DBDBDB"/>
</linearGradient>
<linearGradient id="paint2_linear_31_17952" x1="415" y1="949.488" x2="1673" y2="949.488" gradientUnits="userSpaceOnUse">
<stop stop-color="#D1D5DE"/>
<stop offset="1" stop-color="#DBDBDB"/>
</linearGradient>
<clipPath id="clip0_31_17952">
<rect width="1920" height="862" fill="white"/>
</clipPath>
<clipPath id="clip1_31_17952">
<rect width="1926" height="881" fill="white"/>
</clipPath>
</defs>
</svg>
