<svg width="1800" height="486" viewBox="0 0 1800 486" fill="none" xmlns="http://www.w3.org/2000/svg">
<g clip-path="url(#clip0_1_5448)">
<rect width="1800" height="486" fill="white"/>
<path d="M1800 -161H-2V1133H1800V-161Z" fill="url(#paint0_linear_1_5448)"/>
<path style="mix-blend-mode:multiply" opacity="0.2" d="M1149.45 -161C1139.58 -95.7873 1115.88 -33.1884 1079.45 19.0853C1007.56 122.183 888.376 181.988 771.469 173.577C759.046 172.697 746.531 171.119 733.97 169.23C668.306 159.422 601.389 141.54 542.483 172.102C492.469 198.058 460.496 253.747 415.358 289.071C356.312 335.289 276.833 342.846 208.152 318.184C139.493 293.522 81.306 239.385 38.792 174.405C24.0943 151.943 11.0916 128.135 -1.79492 104.25V-161H1149.45Z" fill="url(#paint1_linear_1_5448)"/>
<g style="mix-blend-mode:overlay">
<path d="M1412.36 -161C1397.8 -145.917 1380.95 -133.707 1362.16 -125.635C1328.24 -111.018 1290 -108.198 1259.21 -86.6482C1218.64 -58.2682 1199.79 -3.70724 1189.57 48.4218C1179.38 100.577 1174.74 155.371 1151.68 202.144C1103.89 299.185 985.081 332.558 890.88 297.374C828.165 273.935 775.782 226.696 733.546 169.134C712.37 140.262 693.748 108.829 677.68 76.4913C641.365 3.40709 614.733 -77.0761 564.927 -139.502C558.937 -147.03 552.435 -154.222 545.562 -161H1412.36Z" fill="#F8E6CB"/>
</g>
<g style="mix-blend-mode:overlay">
<path d="M1739.88 474.734V1133H890.129C892.986 1105.24 898.213 1077.79 906.064 1051.07C932.568 960.613 990.059 881.398 1062.95 832.922C1101.46 807.285 1144.3 790.22 1189.13 784.652C1247.5 777.376 1313.31 786.154 1358.3 744.074C1385.36 718.748 1398.51 680.086 1415.38 645.463C1463.41 546.957 1553.89 471.549 1654.21 463.625C1682.99 461.346 1712.17 465.36 1739.88 474.734Z" fill="#F8E6CB"/>
</g>
<g filter="url(#filter0_d_1_5448)">
<path d="M1240.74 -126.584C1240.74 -126.584 954.137 169.881 1215.33 103.253C1476.52 36.6245 1511.19 58.5995 1514.03 150.675C1517.12 250.332 1564.16 243.959 1668.41 164.695C1772.64 85.431 1682.75 313.18 1913.96 270.659L1900.68 -220L1240.74 -126.562L1240.74 -126.584Z" fill="#F2F2F2"/>
</g>
<g style="mix-blend-mode:overlay">
<path d="M529.005 261.558C538.641 214.058 511.901 166.846 469.279 156.106C426.657 145.367 384.292 175.167 374.656 222.667C365.019 270.167 391.759 317.38 434.382 328.119C477.004 338.859 519.368 309.058 529.005 261.558Z" fill="#F8E6CB"/>
</g>
<g style="mix-blend-mode:overlay">
<path d="M1403.45 531.736C1414.68 520.656 1415.73 501.524 1405.79 489.004C1395.85 476.484 1378.68 475.318 1367.44 486.398C1356.21 497.478 1355.16 516.61 1365.11 529.13C1375.05 541.65 1392.22 542.817 1403.45 531.736Z" fill="#F8E6CB"/>
</g>
<g style="mix-blend-mode:overlay">
<path d="M1528.12 392C1528.12 400.282 1522.09 407 1514.66 407C1507.23 407 1501.2 400.282 1501.2 392C1501.2 383.718 1507.23 377 1514.66 377C1522.09 377 1528.12 383.718 1528.12 392Z" fill="#F8E6CB"/>
</g>
<path d="M203.689 -192.223C300.258 -192.352 395.99 -142.845 458.193 -60.5927C512.124 10.7445 539.914 101.843 586.177 179.543C632.44 257.269 710.582 325.425 792.931 308.354C849.464 296.637 894.402 246.432 920.984 189.683C947.566 132.908 959.091 69.2266 973.312 7.20092C987.555 -54.8247 1005.63 -117.781 1042.46 -166.952C1089.17 -229.262 1164.99 -262.887 1237.39 -253.421" stroke="#D8D8D8" stroke-miterlimit="10"/>
<path d="M235.992 -196.206C326.527 -196.335 416.272 -149.956 474.599 -72.9589C525.165 -6.16794 551.215 79.1488 594.577 151.908C637.962 224.694 711.208 288.513 788.405 272.52C841.411 261.539 883.541 214.539 908.452 161.391C933.386 108.242 944.169 48.5826 957.508 -9.50104C970.846 -67.5847 987.81 -126.547 1022.34 -172.564C1066.12 -230.906 1137.21 -262.403 1205.08 -253.514" stroke="#D8D8D8" stroke-miterlimit="10"/>
<path d="M269.193 -200.088C353.527 -200.191 437.142 -156.906 491.439 -84.9698C538.547 -22.6013 562.808 57.0918 603.212 125.046C643.616 193.025 711.853 252.627 783.755 237.681C833.135 227.442 872.356 183.535 895.574 133.889C918.791 84.2423 928.834 28.545 941.266 -25.7042C953.698 -79.9534 969.493 -135.004 1001.66 -178.005C1042.44 -232.487 1108.66 -261.913 1171.89 -253.613" stroke="#D8D8D8" stroke-miterlimit="10"/>
<path d="M301.496 -203.968C379.798 -204.072 457.428 -163.827 507.852 -97.0032C551.572 -39.0304 574.116 35.0142 611.621 98.1631C649.125 161.312 712.491 216.723 779.242 202.851C825.073 193.327 861.511 152.539 883.058 106.393C904.605 60.2738 913.952 8.48651 925.48 -41.9032C937.03 -92.3188 951.689 -143.485 981.539 -183.445C1019.39 -234.093 1080.88 -261.423 1139.58 -253.711" stroke="#D8D8D8" stroke-miterlimit="10"/>
<path d="M333.799 -207.961C406.07 -208.064 477.714 -170.975 524.24 -109.358C564.597 -55.9333 585.378 12.3267 620.006 70.5325C654.634 128.738 713.105 179.811 774.707 167.017C817.012 158.229 850.642 120.648 870.519 78.1054C890.419 35.5883 899.024 -12.1239 909.67 -58.5955C920.316 -105.067 933.861 -152.237 961.414 -189.042C996.367 -235.72 1053.1 -260.92 1107.28 -253.812" stroke="#D8D8D8" stroke-miterlimit="10"/>
<path d="M-19.1434 356C-30.791 401.2 -10.0481 450.072 20.0222 483.067C50.0924 516.062 88.5852 537.421 123.969 563.072C159.352 588.723 193.553 621.434 206.94 666.039C230.746 745.398 182.137 826.178 158.958 905.769C123.876 1026.19 151.208 1166.6 227.915 1260" stroke="#D8D8D8" stroke-miterlimit="10"/>
<path d="M-46.948 365C-58.6373 410.2 -37.8201 459.072 -7.64203 492.067C22.536 525.062 61.1667 546.421 96.6771 572.072C132.187 597.723 166.51 630.434 179.946 675.039C203.837 754.397 155.054 835.178 131.792 914.77C96.584 1035.19 124.014 1175.6 200.996 1269" stroke="#D8D8D8" stroke-miterlimit="10"/>
<path d="M-73.8778 374C-85.5253 419.25 -64.7824 468.176 -34.7122 501.207C-4.6419 534.239 33.8508 555.621 69.2344 581.301C104.618 606.981 138.818 639.727 152.206 684.382C176.012 763.828 127.403 844.698 104.224 924.378C69.1416 1044.93 96.474 1185.5 173.181 1279" stroke="#D8D8D8" stroke-miterlimit="10"/>
<path d="M-101.694 384C-113.342 429.2 -92.5989 478.072 -62.5286 511.067C-32.4583 544.062 6.03439 565.421 41.418 591.072C76.8016 616.723 111.002 649.434 124.39 694.039C148.195 773.397 99.5863 854.178 76.4072 933.77C41.3252 1054.19 68.6576 1194.6 145.365 1288" stroke="#D8D8D8" stroke-miterlimit="10"/>
<path d="M1335.2 -644C1341.09 -597.456 1377.91 -562.257 1417.46 -545.794C1457.01 -529.332 1499.98 -527.29 1541.69 -519.951C1583.41 -512.611 1626.6 -498.242 1655.15 -463.611C1705.94 -401.974 1691.06 -306.198 1698.98 -223.033C1710.98 -97.2004 1787.3 18.5532 1891.53 69" stroke="#D8D8D8" stroke-miterlimit="10"/>
<path d="M1313.66 -623C1319.55 -576.456 1356.37 -541.257 1395.92 -524.794C1435.48 -508.332 1478.44 -506.29 1520.16 -498.951C1561.84 -491.585 1605.07 -477.242 1633.62 -442.611C1684.41 -380.974 1669.53 -285.198 1677.44 -202.033C1689.44 -76.2003 1765.77 39.5532 1869.99 90" stroke="#D8D8D8" stroke-miterlimit="10"/>
<path d="M1291.23 -602C1297.13 -555.456 1334.01 -520.257 1373.62 -503.794C1413.24 -487.332 1456.28 -485.29 1498.06 -477.951C1539.84 -470.585 1583.1 -456.242 1611.7 -421.611C1662.57 -359.974 1647.67 -264.198 1655.6 -181.033C1667.62 -55.2004 1744.06 60.5532 1848.45 111" stroke="#D8D8D8" stroke-miterlimit="10"/>
<path d="M1269.69 -581C1275.59 -534.456 1312.4 -499.257 1351.96 -482.794C1391.51 -466.332 1434.48 -464.29 1476.19 -456.951C1517.9 -449.585 1561.1 -435.242 1589.65 -400.611C1640.44 -338.974 1625.56 -243.198 1633.48 -160.033C1645.48 -34.2004 1721.8 81.5532 1826.02 132" stroke="#D8D8D8" stroke-miterlimit="10"/>
</g>
<defs>
<filter id="filter0_d_1_5448" x="1082.74" y="-242.74" width="853.955" height="541.48" filterUnits="userSpaceOnUse" color-interpolation-filters="sRGB">
<feFlood flood-opacity="0" result="BackgroundImageFix"/>
<feColorMatrix in="SourceAlpha" type="matrix" values="0 0 0 0 0 0 0 0 0 0 0 0 0 0 0 0 0 0 127 0" result="hardAlpha"/>
<feOffset/>
<feGaussianBlur stdDeviation="11.37"/>
<feColorMatrix type="matrix" values="0 0 0 0 0.156863 0 0 0 0 0.156863 0 0 0 0 0.156863 0 0 0 0.2 0"/>
<feBlend mode="normal" in2="BackgroundImageFix" result="effect1_dropShadow_1_5448"/>
<feBlend mode="normal" in="SourceGraphic" in2="effect1_dropShadow_1_5448" result="shape"/>
</filter>
<linearGradient id="paint0_linear_1_5448" x1="899" y1="-161" x2="899" y2="1133" gradientUnits="userSpaceOnUse">
<stop stop-color="#F7FFFF"/>
<stop offset="1" stop-color="#E3DBDB"/>
</linearGradient>
<linearGradient id="paint1_linear_1_5448" x1="-1.79492" y1="85.4884" x2="1149.45" y2="85.4884" gradientUnits="userSpaceOnUse">
<stop stop-color="#D1D5DE"/>
<stop offset="1" stop-color="#DBDBDB"/>
</linearGradient>
<clipPath id="clip0_1_5448">
<rect width="1800" height="486" fill="white"/>
</clipPath>
</defs>
</svg>
