<svg width="9" height="14" viewBox="0 0 9 14" fill="none" xmlns="http://www.w3.org/2000/svg">
<path d="M7.95 6.75C7.5 6.75 6.6 7.65 4.8 7.65C3 7.65 2.1 6.75 1.65 6.75C1.155 6.75 0.75 7.155 0.75 7.65C0.75 8.1 1.02 8.325 1.2 8.415C1.74 8.73 3.45 9.45 3.45 9.45L1.515 11.88C1.515 11.88 1.155 12.285 1.155 12.6C1.155 13.095 1.56 13.5 2.055 13.5C2.505 13.5 2.73 13.185 2.73 13.185L4.8 10.8L6.825 13.185C6.825 13.185 7.05 13.5 7.5 13.5C7.995 13.5 8.4 13.095 8.4 12.6C8.4 12.33 8.04 11.88 8.04 11.88L6.15 9.45C6.15 9.45 7.86 8.73 8.4 8.415C8.58 8.28 8.85 8.1 8.85 7.65C8.85 7.155 8.445 6.75 7.95 6.75Z" fill="white"/>
<path d="M4.80039 0C3.04539 0 1.65039 1.395 1.65039 3.15C1.65039 4.905 3.04539 6.3 4.80039 6.3C6.55539 6.3 7.95039 4.905 7.95039 3.15C7.95039 1.395 6.55539 0 4.80039 0ZM4.80039 4.725C3.94539 4.725 3.22539 4.005 3.22539 3.15C3.22539 2.295 3.94539 1.575 4.80039 1.575C5.65539 1.575 6.37539 2.295 6.37539 3.15C6.37539 4.005 5.65539 4.725 4.80039 4.725Z" fill="white"/>
</svg>
