<svg width="169" height="27" viewBox="0 0 169 27" fill="none" xmlns="http://www.w3.org/2000/svg">
<path d="M147.019 18.6634H143.857L145.833 6.03522H148.996L147.019 18.6634ZM141.197 6.03522L138.182 14.721L137.825 12.8506L137.825 12.8513L136.761 7.17224C136.761 7.17224 136.633 6.03522 135.261 6.03522H130.277L130.219 6.24904C130.219 6.24904 131.743 6.57873 133.527 7.69244L136.274 18.6637H139.569L144.6 6.03522H141.197ZM166.07 18.6634H168.973L166.442 6.03488H163.9C162.726 6.03488 162.44 6.97598 162.44 6.97598L157.724 18.6634H161.02L161.679 16.7876H165.699L166.07 18.6634ZM162.59 14.1964L164.251 9.4706L165.186 14.1964H162.59ZM157.971 9.072L158.422 6.36018C158.422 6.36018 157.03 5.80957 155.578 5.80957C154.009 5.80957 150.282 6.52266 150.282 9.99013C150.282 13.2526 154.656 13.2931 154.656 15.0067C154.656 16.7204 150.733 16.4133 149.438 15.3327L148.968 18.1682C148.968 18.1682 150.38 18.8812 152.537 18.8812C154.695 18.8812 157.951 17.7196 157.951 14.5578C157.951 11.2744 153.537 10.9687 153.537 9.5412C153.538 8.11334 156.618 8.29676 157.971 9.072Z" fill="#5C5C5C"/>
<path d="M137.814 12.8826L136.752 7.21321C136.752 7.21321 136.623 6.07812 135.254 6.07812H130.277L130.219 6.29159C130.219 6.29159 132.611 6.80686 134.905 8.73744C137.099 10.5827 137.814 12.8826 137.814 12.8826Z" fill="#E6A540"/>
<ellipse cx="10.182" cy="10.5618" rx="10.182" ry="10.5618" fill="#E31216"/>
<ellipse cx="22.6645" cy="10.5618" rx="10.182" ry="10.5618" fill="#F19D1A" fill-opacity="0.9"/>
<ellipse cx="47.5004" cy="10.5618" rx="10.182" ry="10.5618" fill="#E31216"/>
<ellipse cx="59.9809" cy="10.5618" rx="10.182" ry="10.5618" fill="#007DEE" fill-opacity="0.9"/>
<path d="M1.14832 26.426V23.6327H1.70525V23.9957C1.79593 23.8712 1.90886 23.7721 2.04403 23.6984C2.1792 23.6248 2.33233 23.588 2.50343 23.588C2.72073 23.588 2.8944 23.6353 3.02443 23.73C3.15447 23.8229 3.24858 23.9483 3.30675 24.1061C3.3923 23.9518 3.50865 23.8273 3.6558 23.7326C3.80294 23.6362 3.97575 23.588 4.17423 23.588C4.48221 23.588 4.70807 23.6809 4.85179 23.8668C4.99551 24.0509 5.06738 24.2894 5.06738 24.5822V26.426H4.51301V24.7584C4.51301 24.6637 4.5036 24.5655 4.48478 24.4638C4.46767 24.3621 4.42318 24.2771 4.35132 24.2087C4.28117 24.1386 4.16653 24.1035 4.00741 24.1035C3.85 24.1035 3.72595 24.1438 3.63526 24.2245C3.54458 24.3034 3.48042 24.4025 3.44278 24.5217C3.40513 24.6409 3.38631 24.7602 3.38631 24.8794V26.426H2.83451V24.7663C2.83451 24.6734 2.8251 24.5761 2.80628 24.4744C2.78746 24.3709 2.74297 24.2832 2.67282 24.2113C2.60438 24.1394 2.49231 24.1035 2.33661 24.1035C2.18091 24.1035 2.05686 24.1438 1.96447 24.2245C1.87378 24.3051 1.80791 24.4077 1.76684 24.5322C1.72578 24.655 1.70525 24.7812 1.70525 24.911V26.426H1.14832Z" fill="#5C5C5C"/>
<path d="M6.89918 26.4812C6.5912 26.4812 6.34225 26.4076 6.15233 26.2603C5.96412 26.113 5.87001 25.9078 5.87001 25.6448C5.87001 25.4572 5.91792 25.302 6.01374 25.1793C6.11126 25.0565 6.24472 24.9618 6.41411 24.8952C6.58521 24.8268 6.77941 24.7821 6.99671 24.761C7.31838 24.7277 7.54594 24.6953 7.6794 24.6637C7.81286 24.6322 7.87959 24.5804 7.87959 24.5085V24.5033C7.87959 24.3613 7.82056 24.2534 7.7025 24.1798C7.58444 24.1061 7.41591 24.0693 7.1969 24.0693C6.96591 24.0693 6.78711 24.1114 6.6605 24.1956C6.53559 24.278 6.47314 24.4095 6.47314 24.5901H5.92648C5.92648 24.3762 5.98037 24.1947 6.08817 24.0456C6.19767 23.8966 6.34824 23.7835 6.53987 23.7063C6.7315 23.6274 6.95137 23.588 7.19946 23.588C7.42703 23.588 7.63406 23.6239 7.82056 23.6958C8.00877 23.7659 8.15848 23.8712 8.2697 24.0114C8.38092 24.1517 8.43652 24.3262 8.43652 24.5349V25.8684C8.43652 25.9333 8.43823 25.9964 8.44166 26.0578C8.44679 26.1174 8.45706 26.1709 8.47245 26.2182C8.48785 26.2726 8.50582 26.3181 8.52635 26.355C8.54859 26.39 8.56656 26.4137 8.58025 26.426H8.02588C8.01561 26.4155 8.00022 26.3935 7.97968 26.3602C7.96086 26.3252 7.94375 26.2848 7.92835 26.2392C7.91467 26.2007 7.9044 26.1568 7.89756 26.1077C7.80003 26.2217 7.66486 26.3129 7.49205 26.3813C7.32095 26.4479 7.12332 26.4812 6.89918 26.4812ZM7.01468 26.0078C7.1738 26.0078 7.31924 25.9824 7.45098 25.9315C7.58273 25.8789 7.6871 25.8 7.7641 25.6948C7.8428 25.5878 7.88216 25.4537 7.88216 25.2924V25.0504C7.77607 25.0819 7.65716 25.1082 7.52541 25.1293C7.39366 25.1486 7.25935 25.1652 7.12247 25.1793C6.89148 25.2021 6.71782 25.2433 6.60147 25.3029C6.48512 25.3625 6.42695 25.4624 6.42695 25.6027C6.42695 25.8728 6.62286 26.0078 7.01468 26.0078Z" fill="#5C5C5C"/>
<path d="M10.3652 26.4812C10.1479 26.4812 9.9494 26.4497 9.76974 26.3865C9.5918 26.3216 9.44893 26.2261 9.34114 26.0998C9.23505 25.9736 9.18201 25.8184 9.18201 25.6343V25.5633H9.73638V25.6159C9.73638 25.7439 9.7937 25.8412 9.90834 25.9078C10.023 25.9727 10.1804 26.0051 10.3806 26.0051C10.5551 26.0051 10.7048 25.978 10.8297 25.9236C10.9546 25.8675 11.0171 25.7798 11.0171 25.6606C11.0171 25.5343 10.9555 25.444 10.8323 25.3897C10.7108 25.3336 10.526 25.2845 10.2779 25.2424C10.0983 25.2108 9.92801 25.1644 9.76718 25.103C9.60634 25.0416 9.4746 24.9557 9.37194 24.8452C9.27099 24.7347 9.22051 24.5892 9.22051 24.4086C9.22051 24.2333 9.27184 24.0842 9.3745 23.9615C9.47716 23.8387 9.6149 23.7458 9.78771 23.6827C9.96223 23.6195 10.1556 23.588 10.3677 23.588C10.5714 23.588 10.7596 23.6213 10.9324 23.6879C11.1069 23.7546 11.2472 23.8527 11.3533 23.9825C11.4594 24.1105 11.5124 24.2657 11.5124 24.4481V24.4954H10.9606V24.4586C10.9606 24.3674 10.9324 24.2929 10.8759 24.235C10.8194 24.1754 10.7459 24.1315 10.6552 24.1035C10.5662 24.0754 10.4713 24.0614 10.3703 24.0614C10.2779 24.0614 10.1847 24.0719 10.0906 24.093C9.99816 24.1123 9.92117 24.1465 9.85957 24.1956C9.79798 24.2429 9.76718 24.3078 9.76718 24.3902C9.76718 24.5147 9.83305 24.605 9.9648 24.6611C10.0983 24.7155 10.2745 24.7628 10.4935 24.8031C10.6714 24.8347 10.8417 24.8803 11.0042 24.9399C11.1668 24.9978 11.3002 25.0819 11.4046 25.1924C11.509 25.3011 11.5612 25.4493 11.5612 25.6369C11.5612 25.8298 11.5047 25.9885 11.3918 26.113C11.2806 26.2375 11.1343 26.3304 10.9529 26.3918C10.7715 26.4514 10.5756 26.4812 10.3652 26.4812Z" fill="#5C5C5C"/>
<path d="M13.4744 26.4733C13.3547 26.4733 13.2357 26.4558 13.1177 26.4207C13.0013 26.3839 12.9047 26.3129 12.8277 26.2077C12.7507 26.1025 12.7122 25.9455 12.7122 25.7369V24.1061H12.0577V23.6327H12.4016C12.4991 23.6327 12.5693 23.6265 12.6121 23.6143C12.6566 23.6002 12.6839 23.5669 12.6942 23.5143C12.7062 23.46 12.7122 23.3714 12.7122 23.2487V22.7095H13.2691V23.6327H14.1032V24.1061H13.2691V25.5475C13.2691 25.6878 13.2854 25.7982 13.3179 25.8789C13.3521 25.9596 13.4291 25.9999 13.5489 25.9999C13.6002 25.9999 13.6489 25.9955 13.6951 25.9867C13.7413 25.978 13.7764 25.9683 13.8004 25.9578V26.4234C13.7696 26.4356 13.7259 26.447 13.6695 26.4575C13.613 26.4681 13.548 26.4733 13.4744 26.4733Z" fill="#5C5C5C"/>
<path d="M17.4037 25.5475C17.3901 25.6983 17.3302 25.8456 17.2241 25.9894C17.118 26.1331 16.9666 26.2515 16.7698 26.3444C16.5731 26.4374 16.3335 26.4838 16.0512 26.4838C15.7689 26.4838 15.5199 26.4225 15.3043 26.2997C15.0905 26.177 14.9236 26.0069 14.8039 25.7895C14.6841 25.572 14.6242 25.3213 14.6242 25.0372C14.6242 24.7497 14.685 24.4972 14.8064 24.2797C14.9279 24.0623 15.0956 23.8931 15.3095 23.7721C15.5251 23.6493 15.7732 23.588 16.0538 23.588C16.3378 23.588 16.5833 23.6493 16.7904 23.7721C16.9991 23.8948 17.1599 24.064 17.2729 24.2797C17.3858 24.4954 17.4422 24.7435 17.4422 25.0241C17.4422 25.0556 17.4414 25.0942 17.4397 25.1398C17.438 25.1836 17.4354 25.2134 17.432 25.2292H15.1812C15.2154 25.473 15.3086 25.6632 15.4609 25.8C15.6149 25.9368 15.8176 26.0051 16.0692 26.0051C16.2454 26.0051 16.3891 25.9815 16.5003 25.9341C16.6133 25.8868 16.698 25.828 16.7544 25.7579C16.8109 25.6878 16.8425 25.6176 16.8494 25.5475H17.4037ZM16.0589 24.0614C15.8279 24.0614 15.6354 24.1254 15.4814 24.2534C15.3274 24.3814 15.2299 24.5585 15.1889 24.7847H16.8596C16.846 24.5883 16.7724 24.4191 16.6389 24.2771C16.5055 24.1333 16.3121 24.0614 16.0589 24.0614Z" fill="#5C5C5C"/>
<path d="M18.2427 26.426V23.6327H18.7996V24.0035C18.8732 23.8808 18.9733 23.7809 19.0999 23.7037C19.2265 23.6265 19.3831 23.588 19.5696 23.588C19.6791 23.588 19.7672 23.5967 19.8339 23.6143C19.9024 23.6318 19.9443 23.6458 19.9597 23.6564L19.8416 24.1929C19.8245 24.1806 19.7894 24.1649 19.7364 24.1456C19.6851 24.1263 19.6132 24.1166 19.5208 24.1166C19.3343 24.1166 19.188 24.1605 19.0819 24.2482C18.9776 24.3358 18.904 24.4454 18.8612 24.5769C18.8201 24.7067 18.7996 24.8373 18.7996 24.9688V26.426H18.2427Z" fill="#5C5C5C"/>
<path d="M21.8595 26.4812C21.584 26.4812 21.3384 26.4225 21.1229 26.305C20.9073 26.1858 20.737 26.0174 20.6121 25.8C20.4889 25.5808 20.4273 25.3222 20.4273 25.0241C20.4273 24.7277 20.4889 24.4726 20.6121 24.2587C20.737 24.043 20.9073 23.8773 21.1229 23.7616C21.3384 23.6458 21.584 23.588 21.8595 23.588C22.1349 23.588 22.3693 23.6432 22.5627 23.7537C22.756 23.8624 22.904 23.9992 23.0067 24.164C23.1093 24.3288 23.1607 24.4954 23.1607 24.6637V24.6821H22.6089C22.6089 24.6734 22.608 24.6637 22.6063 24.6532C22.6046 24.6409 22.6029 24.6295 22.6012 24.619C22.5789 24.4647 22.5019 24.3367 22.3702 24.235C22.2384 24.1315 22.0665 24.0798 21.8543 24.0798C21.6969 24.0798 21.5532 24.1149 21.4231 24.185C21.2931 24.2534 21.1887 24.3577 21.11 24.498C21.0313 24.6383 20.992 24.8137 20.992 25.0241C20.992 25.2345 21.0305 25.4116 21.1075 25.5554C21.1862 25.6974 21.2905 25.8052 21.4206 25.8789C21.5523 25.9525 21.6969 25.9894 21.8543 25.9894C22.1075 25.9894 22.2932 25.9306 22.4112 25.8131C22.531 25.6957 22.5969 25.558 22.6089 25.4002H23.1607C23.1607 25.5703 23.1111 25.7386 23.0118 25.9052C22.9126 26.0718 22.7663 26.2094 22.5729 26.3181C22.3796 26.4269 22.1418 26.4812 21.8595 26.4812Z" fill="#5C5C5C"/>
<path d="M24.9 26.4812C24.5921 26.4812 24.3431 26.4076 24.1532 26.2603C23.965 26.113 23.8709 25.9078 23.8709 25.6448C23.8709 25.4572 23.9188 25.302 24.0146 25.1793C24.1121 25.0565 24.2456 24.9618 24.415 24.8952C24.5861 24.8268 24.7803 24.7821 24.9976 24.761C25.3192 24.7277 25.5468 24.6953 25.6803 24.6637C25.8137 24.6322 25.8804 24.5804 25.8804 24.5085V24.5033C25.8804 24.3613 25.8214 24.2534 25.7034 24.1798C25.5853 24.1061 25.4168 24.0693 25.1978 24.0693C24.9668 24.0693 24.788 24.1114 24.6614 24.1956C24.5365 24.278 24.474 24.4095 24.474 24.5901H23.9273C23.9273 24.3762 23.9812 24.1947 24.089 24.0456C24.1985 23.8966 24.3491 23.7835 24.5407 23.7063C24.7324 23.6274 24.9522 23.588 25.2003 23.588C25.4279 23.588 25.6349 23.6239 25.8214 23.6958C26.0096 23.7659 26.1593 23.8712 26.2706 24.0114C26.3818 24.1517 26.4374 24.3262 26.4374 24.5349V25.8684C26.4374 25.9333 26.4391 25.9964 26.4425 26.0578C26.4476 26.1174 26.4579 26.1709 26.4733 26.2182C26.4887 26.2726 26.5067 26.3181 26.5272 26.355C26.5495 26.39 26.5674 26.4137 26.5811 26.426H26.0267C26.0165 26.4155 26.0011 26.3935 25.9805 26.3602C25.9617 26.3252 25.9446 26.2848 25.9292 26.2392C25.9155 26.2007 25.9053 26.1568 25.8984 26.1077C25.8009 26.2217 25.6657 26.3129 25.4929 26.3813C25.3218 26.4479 25.1242 26.4812 24.9 26.4812ZM25.0155 26.0078C25.1747 26.0078 25.3201 25.9824 25.4518 25.9315C25.5836 25.8789 25.688 25.8 25.765 25.6948C25.8437 25.5878 25.883 25.4537 25.883 25.2924V25.0504C25.7769 25.0819 25.658 25.1082 25.5263 25.1293C25.3945 25.1486 25.2602 25.1652 25.1233 25.1793C24.8923 25.2021 24.7187 25.2433 24.6023 25.3029C24.486 25.3625 24.4278 25.4624 24.4278 25.6027C24.4278 25.8728 24.6237 26.0078 25.0155 26.0078Z" fill="#5C5C5C"/>
<path d="M27.2932 26.426V23.6327H27.8502V24.0035C27.9237 23.8808 28.0238 23.7809 28.1504 23.7037C28.2771 23.6265 28.4336 23.588 28.6201 23.588C28.7296 23.588 28.8177 23.5967 28.8845 23.6143C28.9529 23.6318 28.9948 23.6458 29.0102 23.6564L28.8922 24.1929C28.8751 24.1806 28.84 24.1649 28.7869 24.1456C28.7356 24.1263 28.6638 24.1166 28.5714 24.1166C28.3849 24.1166 28.2386 24.1605 28.1325 24.2482C28.0281 24.3358 27.9545 24.4454 27.9118 24.5769C27.8707 24.7067 27.8502 24.8373 27.8502 24.9688V26.426H27.2932Z" fill="#5C5C5C"/>
<path d="M30.7175 26.4812C30.4934 26.4812 30.2872 26.426 30.099 26.3155C29.9108 26.2033 29.7602 26.0393 29.6473 25.8237C29.5344 25.6062 29.4779 25.3397 29.4779 25.0241C29.4779 24.7172 29.5352 24.4568 29.6499 24.2429C29.7645 24.029 29.9159 23.8668 30.1041 23.7563C30.2923 23.6441 30.4968 23.588 30.7175 23.588C30.8869 23.588 31.0469 23.6222 31.1975 23.6905C31.3497 23.7572 31.4815 23.8519 31.5927 23.9746V22.3149H32.1522V26.426H31.5927V26.0841C31.4849 26.2068 31.3557 26.3041 31.2052 26.376C31.0546 26.4461 30.892 26.4812 30.7175 26.4812ZM30.8279 25.9631C30.9648 25.9631 31.0914 25.9297 31.2077 25.8631C31.3241 25.7947 31.4173 25.7018 31.4875 25.5843C31.5576 25.4668 31.5927 25.3327 31.5927 25.1819V24.8426C31.5927 24.6988 31.5559 24.5699 31.4823 24.4559C31.4105 24.342 31.3164 24.2525 31.2 24.1877C31.0837 24.121 30.9596 24.0877 30.8279 24.0877C30.6072 24.0877 30.4224 24.164 30.2735 24.3165C30.1247 24.4673 30.0502 24.7032 30.0502 25.0241C30.0502 25.3432 30.1247 25.5799 30.2735 25.7342C30.4241 25.8868 30.6089 25.9631 30.8279 25.9631Z" fill="#5C5C5C"/>
<path d="M42.4863 26.4287V23.7842H43.0477V24.1278C43.1391 24.01 43.253 23.9162 43.3892 23.8464C43.5255 23.7767 43.6799 23.7419 43.8523 23.7419C44.0714 23.7419 44.2464 23.7867 44.3775 23.8763C44.5086 23.9643 44.6035 24.083 44.6621 24.2324C44.7483 24.0863 44.8656 23.9685 45.014 23.8788C45.1623 23.7875 45.3365 23.7419 45.5366 23.7419C45.847 23.7419 46.0747 23.8298 46.2196 24.0058C46.3644 24.1801 46.4369 24.4059 46.4369 24.6831V26.4287H45.8781V24.85C45.8781 24.7603 45.8686 24.6674 45.8496 24.5711C45.8324 24.4748 45.7875 24.3943 45.7151 24.3295C45.6444 24.2631 45.5288 24.2299 45.3684 24.2299C45.2097 24.2299 45.0847 24.2681 44.9933 24.3445C44.9019 24.4192 44.8372 24.513 44.7992 24.6259C44.7613 24.7387 44.7423 24.8516 44.7423 24.9645V26.4287H44.1861V24.8574C44.1861 24.7695 44.1766 24.6773 44.1576 24.581C44.1386 24.4831 44.0938 24.4001 44.0231 24.332C43.9541 24.264 43.8411 24.2299 43.6842 24.2299C43.5272 24.2299 43.4022 24.2681 43.309 24.3445C43.2176 24.4208 43.1512 24.518 43.1098 24.6358C43.0684 24.752 43.0477 24.8716 43.0477 24.9944V26.4287H42.4863Z" fill="#5C5C5C"/>
<path d="M48.2834 26.481C47.973 26.481 47.722 26.4113 47.5306 26.2718C47.3408 26.1324 47.246 25.9382 47.246 25.6891C47.246 25.5115 47.2943 25.3646 47.3908 25.2484C47.4892 25.1322 47.6237 25.0425 47.7944 24.9795C47.9669 24.9147 48.1627 24.8724 48.3817 24.8525C48.706 24.8209 48.9354 24.7902 49.0699 24.7603C49.2044 24.7304 49.2717 24.6815 49.2717 24.6134V24.6084C49.2717 24.474 49.2122 24.3719 49.0932 24.3021C48.9742 24.2324 48.8043 24.1976 48.5835 24.1976C48.3507 24.1976 48.1704 24.2374 48.0428 24.3171C47.9169 24.3951 47.8539 24.5196 47.8539 24.6906H47.3029C47.3029 24.4881 47.3572 24.3163 47.4659 24.1751C47.5763 24.034 47.728 23.927 47.9212 23.8539C48.1144 23.7792 48.336 23.7419 48.5861 23.7419C48.8155 23.7419 49.0242 23.7759 49.2122 23.844C49.4019 23.9104 49.5528 24.01 49.6649 24.1428C49.7771 24.2756 49.8331 24.4408 49.8331 24.6383V25.9008C49.8331 25.9622 49.8348 26.022 49.8383 26.0801C49.8435 26.1365 49.8538 26.1872 49.8693 26.232C49.8848 26.2835 49.903 26.3266 49.9237 26.3615C49.9461 26.3947 49.9642 26.4171 49.978 26.4287H49.4192C49.4088 26.4188 49.3933 26.398 49.3726 26.3665C49.3536 26.3333 49.3364 26.2951 49.3209 26.2519C49.3071 26.2154 49.2967 26.1739 49.2898 26.1274C49.1915 26.2353 49.0552 26.3216 48.881 26.3864C48.7086 26.4495 48.5094 26.481 48.2834 26.481ZM48.3998 26.0328C48.5602 26.0328 48.7068 26.0087 48.8396 25.9606C48.9725 25.9108 49.0777 25.8361 49.1553 25.7365C49.2346 25.6352 49.2743 25.5082 49.2743 25.3555V25.1264C49.1673 25.1563 49.0475 25.1812 48.9147 25.2011C48.7819 25.2193 48.6465 25.2351 48.5085 25.2484C48.2756 25.27 48.1006 25.309 47.9833 25.3654C47.866 25.4219 47.8074 25.5165 47.8074 25.6493C47.8074 25.905 48.0049 26.0328 48.3998 26.0328Z" fill="#5C5C5C"/>
<path d="M53.3865 25.597C53.3727 25.7398 53.3123 25.8792 53.2054 26.0154C53.0984 26.1515 52.9458 26.2635 52.7474 26.3515C52.5491 26.4395 52.3076 26.4835 52.023 26.4835C51.7385 26.4835 51.4875 26.4254 51.2702 26.3092C51.0546 26.193 50.8864 26.032 50.7657 25.8261C50.645 25.6203 50.5846 25.3829 50.5846 25.1139C50.5846 24.8417 50.6458 24.6026 50.7683 24.3968C50.8907 24.1909 51.0598 24.0307 51.2754 23.9162C51.4927 23.8 51.7428 23.7419 52.0256 23.7419C52.3119 23.7419 52.5594 23.8 52.7681 23.9162C52.9785 24.0324 53.1407 24.1926 53.2545 24.3968C53.3683 24.601 53.4253 24.8359 53.4253 25.1015C53.4253 25.1314 53.4244 25.1679 53.4227 25.211C53.4209 25.2525 53.4184 25.2808 53.4149 25.2957H51.146C51.1805 25.5265 51.2745 25.7066 51.428 25.8361C51.5832 25.9656 51.7876 26.0303 52.0411 26.0303C52.2188 26.0303 52.3637 26.0079 52.4758 25.9631C52.5896 25.9182 52.675 25.8626 52.7319 25.7962C52.7888 25.7298 52.8207 25.6634 52.8276 25.597H53.3865ZM52.0308 24.1901C51.798 24.1901 51.6039 24.2507 51.4487 24.3719C51.2935 24.4931 51.1952 24.6607 51.1538 24.8749H52.838C52.8242 24.6889 52.75 24.5287 52.6155 24.3943C52.481 24.2582 52.2861 24.1901 52.0308 24.1901Z" fill="#5C5C5C"/>
<path d="M55.3135 26.481C55.0945 26.481 54.8944 26.4511 54.7133 26.3914C54.534 26.3299 54.3899 26.2395 54.2813 26.1199C54.1743 26.0004 54.1209 25.8535 54.1209 25.6792V25.612H54.6797V25.6618C54.6797 25.7829 54.7375 25.8751 54.853 25.9382C54.9686 25.9996 55.1273 26.0303 55.3291 26.0303C55.505 26.0303 55.6559 26.0046 55.7818 25.9531C55.9077 25.9 55.9707 25.817 55.9707 25.7041C55.9707 25.5846 55.9086 25.4991 55.7844 25.4476C55.6619 25.3945 55.4757 25.348 55.2256 25.3082C55.0445 25.2783 54.8729 25.2343 54.7107 25.1762C54.5486 25.1181 54.4158 25.0367 54.3123 24.9321C54.2106 24.8276 54.1597 24.6898 54.1597 24.5188C54.1597 24.3528 54.2114 24.2117 54.3149 24.0955C54.4184 23.9793 54.5572 23.8913 54.7314 23.8315C54.9074 23.7717 55.1023 23.7419 55.3161 23.7419C55.5214 23.7419 55.7111 23.7734 55.8853 23.8365C56.0612 23.8996 56.2027 23.9925 56.3096 24.1154C56.4165 24.2366 56.47 24.3835 56.47 24.5561V24.601H55.9138V24.5661C55.9138 24.4798 55.8853 24.4092 55.8284 24.3544C55.7715 24.298 55.6973 24.2565 55.6059 24.2299C55.5162 24.2034 55.4205 24.1901 55.3187 24.1901C55.2256 24.1901 55.1316 24.2 55.0367 24.22C54.9436 24.2382 54.866 24.2706 54.8039 24.3171C54.7418 24.3619 54.7107 24.4233 54.7107 24.5014C54.7107 24.6192 54.7771 24.7047 54.91 24.7578C55.0445 24.8093 55.2221 24.8541 55.4429 24.8923C55.6223 24.9222 55.7939 24.9653 55.9577 25.0218C56.1216 25.0766 56.2561 25.1563 56.3613 25.2608C56.4665 25.3638 56.5192 25.504 56.5192 25.6817C56.5192 25.8643 56.4622 26.0145 56.3484 26.1324C56.2363 26.2503 56.0888 26.3382 55.906 26.3963C55.7232 26.4528 55.5257 26.481 55.3135 26.481Z" fill="#5C5C5C"/>
<path d="M58.4478 26.4735C58.327 26.4735 58.2072 26.4569 58.0882 26.4237C57.9709 26.3889 57.8734 26.3216 57.7958 26.222C57.7182 26.1224 57.6794 25.9739 57.6794 25.7763V24.2324H57.0197V23.7842H57.3664C57.4647 23.7842 57.5354 23.7784 57.5785 23.7668C57.6233 23.7535 57.6509 23.7219 57.6613 23.6721C57.6734 23.6207 57.6794 23.5368 57.6794 23.4206V22.9102H58.2408V23.7842H59.0816V24.2324H58.2408V25.597C58.2408 25.7298 58.2572 25.8344 58.29 25.9108C58.3245 25.9871 58.4021 26.0253 58.5228 26.0253C58.5745 26.0253 58.6237 26.0212 58.6703 26.0129C58.7168 26.0046 58.7522 25.9954 58.7763 25.9855V26.4262C58.7453 26.4379 58.7013 26.4486 58.6444 26.4586C58.5875 26.4686 58.5219 26.4735 58.4478 26.4735Z" fill="#5C5C5C"/>
<path d="M59.7989 26.4287V23.7842H60.3603V24.1353C60.4345 24.0191 60.5354 23.9245 60.663 23.8514C60.7906 23.7784 60.9485 23.7419 61.1365 23.7419C61.2468 23.7419 61.3357 23.7502 61.4029 23.7668C61.4719 23.7834 61.5142 23.7966 61.5297 23.8066L61.4107 24.3146C61.3934 24.303 61.3581 24.288 61.3046 24.2698C61.2529 24.2515 61.1804 24.2424 61.0873 24.2424C60.8993 24.2424 60.7518 24.2839 60.6449 24.3669C60.5397 24.4499 60.4655 24.5536 60.4224 24.6782C60.381 24.801 60.3603 24.9247 60.3603 25.0492V26.4287H59.7989Z" fill="#5C5C5C"/>
<path d="M63.4396 26.4785C63.1567 26.4785 62.9066 26.4196 62.6893 26.3017C62.4737 26.1839 62.3047 26.022 62.1822 25.8161C62.0615 25.6086 62.0011 25.3712 62.0011 25.104C62.0011 24.8384 62.0615 24.6034 62.1822 24.3993C62.3047 24.1934 62.4737 24.0332 62.6893 23.9187C62.9066 23.8025 63.1567 23.7444 63.4396 23.7444C63.7224 23.7444 63.9717 23.8025 64.1873 23.9187C64.4046 24.0332 64.5736 24.1934 64.6943 24.3993C64.8168 24.6034 64.878 24.8384 64.878 25.104C64.878 25.3712 64.8168 25.6086 64.6943 25.8161C64.5736 26.022 64.4046 26.1839 64.1873 26.3017C63.9717 26.4196 63.7224 26.4785 63.4396 26.4785ZM63.4396 26.0154C63.6983 26.0154 63.9087 25.9324 64.0708 25.7663C64.233 25.6003 64.314 25.3795 64.314 25.104C64.314 24.8301 64.233 24.6126 64.0708 24.4516C63.9087 24.2889 63.6983 24.2075 63.4396 24.2075C63.1809 24.2075 62.9704 24.2889 62.8083 24.4516C62.6462 24.6126 62.5651 24.8301 62.5651 25.104C62.5651 25.3795 62.6462 25.6003 62.8083 25.7663C62.9704 25.9324 63.1809 26.0154 63.4396 26.0154Z" fill="#5C5C5C"/>
<path d="M86.5853 13.8217C86.6829 13.8217 86.7578 13.8217 86.8372 13.8217C86.9537 13.414 87.0715 13.0105 87.1843 12.6051C87.4043 11.814 87.6238 11.0226 87.8393 10.23C87.9782 9.71902 88.1041 9.20447 88.2458 8.69437C88.3614 8.27893 88.4778 7.86231 88.6205 7.45637C88.7796 7.00354 89.0407 6.63618 89.4204 6.32935C89.8671 5.96851 90.3505 5.81688 90.8953 5.81599C92.2706 5.81361 93.6459 5.8151 95.0292 5.8151C95.0292 10.3647 95.0292 14.9111 95.0292 19.4666C93.6405 19.4666 92.2527 19.4666 90.8458 19.4666C90.8458 16.8055 90.8458 14.144 90.8458 11.4864C90.6107 11.438 90.5842 11.4603 90.5213 11.6778C90.3593 12.2357 90.1913 12.7915 90.0271 13.3487C89.926 13.6915 89.8284 14.0351 89.7276 14.3778C89.6077 14.7865 89.4859 15.1945 89.3652 15.6031C89.2043 16.1485 89.0432 16.6942 88.8832 17.2399C88.6945 17.8844 88.5077 18.5298 88.3179 19.1741C88.2897 19.2699 88.2478 19.3616 88.2074 19.4687C87.2187 19.4687 86.2144 19.4687 85.2086 19.4687C85.1423 19.234 85.0765 18.9933 85.0056 18.7545C84.8599 18.2631 84.7107 17.7728 84.5638 17.2817C84.4548 16.9168 84.3491 16.5506 84.2387 16.1862C84.0969 15.7179 83.9475 15.252 83.8094 14.7826C83.6898 14.3758 83.5851 13.9639 83.4672 13.5565C83.3693 13.2185 83.2594 12.8843 83.1595 12.5472C83.0883 12.3069 83.0257 12.0636 82.9573 11.8223C82.9249 11.7075 82.8873 11.5941 82.8497 11.4716C82.7757 11.4716 82.6966 11.4716 82.5998 11.4716C82.5998 14.1369 82.5998 16.7986 82.5998 19.4681C81.1943 19.4681 79.8068 19.4681 78.4102 19.4681C78.4102 14.9203 78.4102 10.3787 78.4102 5.81569C78.4674 5.81569 78.5223 5.81569 78.5773 5.81569C79.9434 5.81361 81.3093 5.80501 82.6755 5.81272C83.1148 5.8151 83.5167 5.97237 83.888 6.22134C84.4972 6.62995 84.7989 7.23708 84.9632 7.94866C85.0682 8.40386 85.2063 8.85046 85.331 9.30061C85.4141 9.60002 85.4987 9.89914 85.5846 10.1977C85.725 10.6849 85.8685 11.171 86.0071 11.6585C86.0788 11.9113 86.1401 12.1677 86.2109 12.4211C86.3131 12.7864 86.4219 13.1496 86.5241 13.5152C86.5511 13.6125 86.5642 13.7143 86.5853 13.8217Z" fill="#5C5C5C"/>
<path d="M109.831 19.4626C108.432 19.4626 107.042 19.4626 105.64 19.4626C105.64 16.799 105.64 14.1416 105.64 11.4709C105.546 11.4709 105.464 11.4709 105.381 11.4709C105.145 12.0037 104.908 12.5372 104.672 13.0718C104.461 13.5518 104.252 14.033 104.041 14.5134C103.825 15.0041 103.61 15.4945 103.392 15.9843C103.1 16.6429 102.812 17.3034 102.51 17.9573C102.368 18.2658 102.181 18.5423 101.94 18.7862C101.593 19.1369 101.177 19.325 100.719 19.4338C100.602 19.4617 100.477 19.4671 100.355 19.4671C99.2151 19.4694 98.0749 19.4686 96.9349 19.4686C96.8782 19.4686 96.8212 19.4686 96.7539 19.4686C96.7539 14.918 96.7539 10.3729 96.7539 5.81877C98.1427 5.81877 99.5358 5.81877 100.941 5.81877C100.941 8.48179 100.941 11.1395 100.941 13.7933C101.154 13.8541 101.196 13.8251 101.276 13.6387C101.46 13.2139 101.653 12.7938 101.842 12.3713C101.977 12.0675 102.111 11.7631 102.246 11.459C102.481 10.9279 102.717 10.3975 102.952 9.86612C103.239 9.2146 103.521 8.56012 103.813 7.91068C103.966 7.57157 104.112 7.22593 104.302 6.90967C104.618 6.38068 105.094 6.05137 105.667 5.88552C105.832 5.83775 106.009 5.81491 106.181 5.81402C107.364 5.80749 108.546 5.81016 109.729 5.80987C109.761 5.80987 109.793 5.80987 109.831 5.80987C109.831 10.3631 109.831 14.9047 109.831 19.4626Z" fill="#5C5C5C"/>
<path d="M111.375 5.80973C111.89 5.80973 112.373 5.80973 112.857 5.80973C115.445 5.81063 118.034 5.80645 120.622 5.816C121.177 5.81808 121.708 5.97077 122.22 6.20039C122.643 6.39065 123.028 6.64532 123.379 6.95158C123.577 7.12424 123.764 7.32076 123.918 7.53577C124.141 7.84531 124.355 8.16797 124.527 8.51032C124.669 8.79004 124.759 9.10196 124.844 9.40793C124.969 9.85315 125.004 10.3145 124.996 10.777C124.992 11.0072 124.964 11.2374 124.939 11.4668C124.936 11.4975 124.895 11.5342 124.863 11.5482C124.831 11.5625 124.789 11.5523 124.751 11.5523C122.086 11.5535 119.421 11.5601 116.757 11.5479C116.446 11.5464 116.136 11.4387 115.826 11.3812C115.353 11.2935 114.917 11.1009 114.494 10.8733C114.066 10.6431 113.663 10.3688 113.318 10.0166C113.047 9.73983 112.789 9.4464 112.546 9.14252C112.213 8.72771 111.979 8.2467 111.776 7.75227C111.597 7.31748 111.503 6.85645 111.442 6.38856C111.417 6.20128 111.398 6.01371 111.375 5.80973Z" fill="#319B42"/>
<path d="M111.557 12.2153C115.975 12.2153 120.385 12.2153 124.816 12.2153C124.806 12.27 124.808 12.3208 124.788 12.359C124.633 12.6585 124.5 12.9754 124.309 13.2478C124.098 13.5479 123.85 13.8245 123.588 14.0781C123.31 14.348 122.994 14.5804 122.649 14.7518C122.331 14.9101 122.003 15.0523 121.67 15.1726C121.463 15.2473 121.235 15.2563 121.022 15.3139C120.206 15.5343 119.375 15.4241 118.55 15.4411C117.716 15.4584 116.881 15.445 116.046 15.445C115.97 15.445 115.894 15.445 115.8 15.445C115.8 16.7911 115.8 18.1261 115.8 19.4688C114.375 19.4688 112.97 19.4688 111.557 19.4688C111.557 17.0542 111.557 14.6422 111.557 12.2153Z" fill="#5C5C5C"/>
</svg>
