<svg width="104" height="84" viewBox="0 0 104 84" fill="none" xmlns="http://www.w3.org/2000/svg">
<g id="Group 4950">
<path id="Vector" d="M52.0471 0.00577257C62.5831 0.00577257 73.1191 -0.00115396 83.6528 0.00808208C89.7278 0.0150091 94.8538 2.24089 98.9176 6.76193C101.601 9.74517 103.254 13.2526 103.739 17.2541C103.907 18.6418 103.958 20.0503 103.96 21.4495C103.974 35.3752 104.057 49.3031 103.93 63.2264C103.864 70.5922 100.476 76.2769 94.2165 80.1792C91.0347 82.1649 87.518 83.0354 83.7682 83.0331C62.5807 83.0239 41.3933 83.0262 20.2035 83.0331C16.9755 83.0331 13.9022 82.3843 11.0344 80.8903C5.40047 77.9533 1.8215 73.4022 0.479969 67.1771C0.165944 65.7248 0.0274035 64.2054 0.0227854 62.7184C-0.00954067 48.458 0.00200433 34.1953 0.00200433 19.9325C0.00200433 10.8766 6.26634 2.87125 15.0567 0.643059C16.7723 0.208966 18.5018 0.00577257 20.2589 0.00577257C30.8527 -0.00346346 41.4464 0.00115445 52.0401 0.00115445L52.0471 0.00577257ZM52.5735 79.6827C62.8948 79.6827 73.2184 79.6804 83.5396 79.6827C86.9316 79.6827 90.1018 78.9023 92.9442 77.0089C97.7285 73.8202 100.483 69.343 100.534 63.5959C100.663 49.0399 100.589 34.4839 100.585 19.9279C100.585 16.3074 99.4949 13.0124 97.3152 10.1331C93.8978 5.62128 89.2937 3.38616 83.6505 3.37692C71.2996 3.35383 58.951 3.37692 46.6001 3.37692C37.8975 3.37692 29.1971 3.37231 20.4945 3.36769C18.8297 3.36769 17.1833 3.53625 15.5763 3.97727C8.41603 5.94454 3.38239 12.5321 3.37547 19.9879C3.36161 34.2715 3.37085 48.555 3.37085 62.8385C3.37085 64.6811 3.60637 66.4914 4.21133 68.237C6.65195 75.2818 12.8516 79.6804 20.3167 79.6827C31.0674 79.6827 41.8205 79.6827 52.5712 79.6827H52.5735Z" fill="white"/>
<path id="Vector_2" d="M28.439 41.4825C28.439 34.2276 28.4505 26.9727 28.4297 19.7178C28.4251 18.2816 28.7553 17.0232 29.8821 16.0557C31.2652 14.8689 33.2025 14.6795 34.7772 15.5893C43.907 20.8631 53.0322 26.1438 62.162 31.4152C65.8172 33.5257 69.4793 35.6222 73.1368 37.7304C75.9676 39.3628 76.3694 42.9233 73.8964 44.8352C73.0721 45.4725 72.1093 45.9343 71.2018 46.4584C64.2148 50.4992 57.2277 54.5423 50.2337 58.5738C45.0777 61.5455 39.9171 64.5126 34.7449 67.4519C31.8632 69.089 28.4621 67.0917 28.4551 63.7737C28.4436 57.0267 28.4505 50.2775 28.4505 43.5306C28.4505 42.8471 28.4505 42.166 28.4505 41.4825H28.4367H28.439ZM31.824 41.4987C31.824 48.8529 31.8378 56.2094 31.8078 63.5635C31.8032 64.6442 32.6206 64.8243 33.2602 64.4525C38.5801 61.37 43.9093 58.3059 49.2362 55.235C56.6366 50.9679 64.037 46.7009 71.435 42.4338C72.4048 41.875 72.4094 41.21 71.4512 40.6582C68.0315 38.684 64.6096 36.7144 61.1876 34.7379C54.0597 30.6209 46.9341 26.504 39.8062 22.387C37.615 21.1217 35.4237 19.8586 33.2325 18.5956C32.6575 18.2654 32.071 18.367 31.8932 18.8588C31.8101 19.0874 31.824 19.3576 31.824 19.6093C31.8217 26.9057 31.8217 34.2022 31.8217 41.4987H31.824Z" fill="white"/>
</g>
</svg>
