<svg width="17" height="16" viewBox="0 0 17 16" fill="none" xmlns="http://www.w3.org/2000/svg">
<path d="M16.067 7.55613C16.0675 8.5937 15.9574 9.3528 15.7358 10.0959C15.4666 10.9989 15.0574 11.8266 14.4945 12.5712C13.6896 13.6367 12.6905 14.4468 11.4817 14.9785C10.6587 15.3405 9.80373 15.5494 8.90919 15.5979C8.08369 15.6432 7.27571 15.552 6.47823 15.3276C5.93741 15.1755 5.4246 14.9579 4.9298 14.6907C4.86276 14.6546 4.80523 14.6516 4.73068 14.6763C3.65504 15.0337 2.57739 15.3859 1.50074 15.7397C1.2671 15.8165 1.03396 15.8959 0.800824 15.9738C0.765803 15.9857 0.72678 16.0161 0.694761 15.9893C0.655237 15.9563 0.682253 15.9088 0.694761 15.8701C0.825839 15.4679 0.957919 15.0662 1.09 14.6644C1.2606 14.1451 1.4312 13.6258 1.6008 13.1065C1.72938 12.7131 1.85546 12.318 1.98654 11.9256C2.00755 11.8627 2.00455 11.8158 1.97103 11.7585C1.44071 10.839 1.11201 9.84581 0.985435 8.78709C0.874869 7.86606 0.923398 6.9507 1.12602 6.04205C1.38918 4.86266 1.89798 3.8091 2.63392 2.87363C3.12622 2.2481 3.70557 1.71642 4.36246 1.27447C5.06939 0.798998 5.83034 0.454515 6.64733 0.242049C7.0871 0.127565 7.53537 0.0615564 7.98764 0.0223637C8.62252 -0.0322998 9.25189 0.0161755 9.87477 0.135816C10.9094 0.334358 11.8655 0.737115 12.738 1.34821C13.3869 1.80254 13.9572 2.34247 14.4405 2.97677C15.1714 3.93545 15.6637 5.0117 15.9054 6.20811C16.0125 6.73875 16.0685 7.27456 16.066 7.55561L16.067 7.55613ZM14.7987 7.82738C14.8057 7.09458 14.6897 6.38447 14.457 5.69396C14.1278 4.71775 13.6025 3.87253 12.8821 3.15159C12.3262 2.59567 11.6969 2.15888 10.9864 1.84276C10.201 1.49312 9.37997 1.31727 8.52546 1.31263C7.91109 1.30953 7.30923 1.40133 6.71787 1.57976C5.79882 1.85669 4.98984 2.33215 4.27941 2.9876C3.7546 3.47184 3.32534 4.03601 2.98263 4.67186C2.69146 5.21179 2.47933 5.78163 2.34875 6.38344C2.21017 7.02342 2.16514 7.67061 2.21667 8.32503C2.2592 8.86651 2.35826 9.39458 2.53286 9.90666C2.72348 10.4672 2.97013 11.0004 3.30783 11.4842C3.37437 11.5796 3.38337 11.6667 3.34585 11.7797C3.10971 12.4841 2.88007 13.1906 2.65043 13.8971C2.63943 13.9306 2.60391 13.9724 2.63693 14.0038C2.66694 14.0322 2.70747 14.0002 2.74099 13.9889C3.41389 13.7666 4.0883 13.549 4.7577 13.3169C4.94581 13.2514 5.10641 13.2308 5.2615 13.384C5.30803 13.4299 5.37757 13.45 5.43561 13.4835C6.32264 13.9977 7.27721 14.2627 8.29132 14.3035C8.91469 14.3287 9.52856 14.2555 10.1304 14.0853C11.3722 13.7336 12.4223 13.0617 13.2623 12.0556C14.2759 10.8416 14.7852 9.42861 14.7987 7.82687V7.82738Z" fill="#7725A8"/>
<path d="M4.72753 5.47574C4.72123 4.70968 5.01134 4.07656 5.54638 3.57017C5.70668 3.41808 5.90324 3.34035 6.12766 3.37809C6.23488 3.39612 6.34578 3.41301 6.45352 3.40457C6.66795 3.38823 6.77622 3.5206 6.84665 3.70536C6.92706 3.91771 6.99749 4.13457 7.07212 4.34975C7.18617 4.67814 7.28603 5.01442 7.41953 5.33323C7.52937 5.59628 7.48049 5.81202 7.33175 6.02438C7.20824 6.20068 7.07002 6.36347 6.92443 6.51837C6.73418 6.72115 6.71946 6.79044 6.8519 7.04447C7.20824 7.72942 7.65183 8.3372 8.2205 8.83739C8.61889 9.18775 9.06247 9.45644 9.52708 9.68738C9.71366 9.78032 9.80301 9.76737 9.94964 9.60289C10.1604 9.36575 10.369 9.12579 10.5551 8.86556C10.7275 8.62391 10.7963 8.59574 11.0539 8.71572C11.5027 8.92583 11.9237 9.19451 12.3573 9.43785C12.454 9.49249 12.5507 9.54656 12.6474 9.60176C12.7762 9.67499 12.8345 9.78764 12.8256 9.94649C12.7877 10.6495 12.5186 11.1818 11.9064 11.509C11.2804 11.8436 10.655 11.8785 10.0069 11.6166C9.49187 11.4088 8.97628 11.202 8.48697 10.9294C7.84734 10.5734 7.30285 10.0867 6.8025 9.53811C6.25643 8.93935 5.80811 8.26116 5.39291 7.55424C5.09964 7.05405 4.86366 6.53076 4.76485 5.94552C4.7391 5.79399 4.71702 5.64022 4.72753 5.47574Z" fill="#7725A8"/>
</svg>
