<svg width="14" height="9" viewBox="0 0 14 9" fill="none" xmlns="http://www.w3.org/2000/svg">
<path d="M7.2489 8.1C7.6989 8.1 7.6989 7.47 7.6989 7.2C7.6989 6.75 8.1489 6.3 8.5989 6.3C9.0489 6.3 9.8139 7.065 10.3989 7.65C10.8489 8.1 10.8489 8.1 11.2989 8.1C11.7489 8.1 12.6489 8.1 12.6489 8.1C12.6489 8.1 13.5489 8.055 13.5489 7.2C13.5489 6.93 13.2339 6.435 12.1989 5.4C11.2989 4.5 10.8489 4.95 12.1989 3.15C13.0089 2.025 13.6389 1.035 13.5489 0.765C13.4589 0.495 11.1639 0.045 10.8489 0.45C9.9489 1.8 9.7689 2.115 9.4989 2.7C9.0489 3.6 9.0039 4.05 8.5989 4.05C8.1939 4.05 8.1489 3.195 8.1489 2.7C8.1489 1.215 8.3739 0.18 7.6989 0C7.6989 0 6.7989 0 6.3489 0C5.6289 0 4.9989 0.45 4.9989 0.45C4.9989 0.45 4.4589 0.9 4.5489 0.9C4.6839 0.9 5.4489 0.72 5.4489 1.35C5.4489 1.8 5.4489 2.25 5.4489 2.25C5.4489 2.25 5.4489 4.05 4.9989 4.05C4.5489 4.05 3.6489 2.25 2.7489 0.9C2.3889 0.36 2.2989 0.45 1.8489 0.45C1.3539 0.45 0.9489 0.45 0.4989 0.45C0.0489003 0.45 0.0039003 0.72 0.0489003 0.9C0.9489 3.15 1.5789 4.545 3.2889 6.345C4.8639 7.965 5.8989 8.055 6.7989 8.1C7.0239 8.1 6.7989 8.1 7.2489 8.1Z" fill="white"/>
</svg>
