<svg width="16" height="16" viewBox="0 0 16 16" fill="none" xmlns="http://www.w3.org/2000/svg">
<path d="M15.6585 7.55613C15.659 8.5937 15.549 9.3528 15.3273 10.0959C15.0582 10.9989 14.6489 11.8266 14.0861 12.5712C13.2811 13.6367 12.282 14.4468 11.0733 14.9785C10.2503 15.3405 9.39528 15.5494 8.50074 15.5979C7.67525 15.6432 6.86726 15.552 6.06978 15.3276C5.52896 15.1755 5.01615 14.9579 4.52135 14.6907C4.45431 14.6546 4.39678 14.6516 4.32224 14.6763C3.24659 15.0337 2.16894 15.3859 1.0923 15.7397C0.858657 15.8165 0.625517 15.8959 0.392377 15.9738C0.357356 15.9857 0.318333 16.0161 0.286313 15.9893C0.24679 15.9563 0.273806 15.9088 0.286313 15.8701C0.417392 15.4679 0.549471 15.0662 0.681551 14.6644C0.852153 14.1451 1.02276 13.6258 1.19236 13.1065C1.32093 12.7131 1.44701 12.318 1.57809 11.9256C1.5991 11.8627 1.5961 11.8158 1.56258 11.7585C1.03226 10.839 0.703564 9.84581 0.576988 8.78709C0.466421 7.86606 0.51495 6.9507 0.717572 6.04205C0.98073 4.86266 1.48954 3.8091 2.22548 2.87363C2.71777 2.2481 3.29712 1.71642 3.95401 1.27447C4.66094 0.798998 5.4219 0.454515 6.23889 0.242049C6.67865 0.127565 7.12692 0.0615564 7.57919 0.0223637C8.21407 -0.0322998 8.84345 0.0161755 9.46632 0.135816C10.5009 0.334358 11.457 0.737115 12.3295 1.34821C12.9784 1.80254 13.5488 2.34247 14.0321 2.97677C14.763 3.93545 15.2553 5.0117 15.4969 6.20811C15.604 6.73875 15.66 7.27456 15.6575 7.55561L15.6585 7.55613ZM14.3903 7.82738C14.3973 7.09458 14.2812 6.38447 14.0486 5.69396C13.7194 4.71775 13.1941 3.87253 12.4736 3.15159C11.9178 2.59567 11.2884 2.15888 10.578 1.84276C9.79252 1.49312 8.97152 1.31727 8.11701 1.31263C7.50264 1.30953 6.90078 1.40133 6.30943 1.57976C5.39038 1.85669 4.58139 2.33215 3.87096 2.9876C3.34615 3.47184 2.91689 4.03601 2.57419 4.67186C2.28301 5.21179 2.07088 5.78163 1.94031 6.38344C1.80172 7.02342 1.7567 7.67061 1.80823 8.32503C1.85075 8.86651 1.94981 9.39458 2.12442 9.90666C2.31503 10.4672 2.56168 11.0004 2.89938 11.4842C2.96592 11.5796 2.97493 11.6667 2.9374 11.7797C2.70126 12.4841 2.47162 13.1906 2.24199 13.8971C2.23098 13.9306 2.19546 13.9724 2.22848 14.0038C2.2585 14.0322 2.29902 14.0002 2.33254 13.9889C3.00544 13.7666 3.67985 13.549 4.34925 13.3169C4.53736 13.2514 4.69796 13.2308 4.85305 13.384C4.89958 13.4299 4.96912 13.45 5.02716 13.4835C5.91419 13.9977 6.86876 14.2627 7.88287 14.3035C8.50625 14.3287 9.12011 14.2555 9.72198 14.0853C10.9637 13.7336 12.0139 13.0617 12.8539 12.0556C13.8675 10.8416 14.3768 9.42861 14.3903 7.82687V7.82738Z" fill="#32D305"/>
<path d="M4.31909 5.47574C4.31278 4.70968 4.60289 4.07656 5.13792 3.57017C5.29821 3.41808 5.49478 3.34035 5.71919 3.37809C5.82641 3.39612 5.9373 3.41301 6.04504 3.40457C6.25947 3.38823 6.36774 3.5206 6.43817 3.70536C6.51858 3.91771 6.589 4.13457 6.66363 4.34975C6.77768 4.67814 6.87754 5.01442 7.01103 5.33323C7.12088 5.59628 7.072 5.81202 6.92326 6.02438C6.79976 6.20068 6.66153 6.36347 6.51595 6.51837C6.3257 6.72115 6.31098 6.79044 6.44342 7.04447C6.79975 7.72942 7.24333 8.3372 7.81199 8.83739C8.21037 9.18775 8.65395 9.45644 9.11855 9.68738C9.30513 9.78032 9.39447 9.76737 9.5411 9.60289C9.75186 9.36575 9.96051 9.12579 10.1466 8.86556C10.3189 8.62391 10.3878 8.59574 10.6453 8.71572C11.0942 8.92583 11.5151 9.19451 11.9487 9.43785C12.0454 9.49249 12.1421 9.54656 12.2388 9.60176C12.3676 9.67499 12.4259 9.78764 12.417 9.94649C12.3792 10.6495 12.1101 11.1818 11.4978 11.509C10.8718 11.8436 10.2464 11.8785 9.59839 11.6166C9.08334 11.4088 8.56776 11.202 8.07846 10.9294C7.43884 10.5734 6.89436 10.0867 6.39402 9.53811C5.84796 8.93935 5.39965 8.26116 4.98445 7.55424C4.69119 7.05405 4.45521 6.53076 4.3564 5.94552C4.33065 5.79399 4.30857 5.64022 4.31909 5.47574Z" fill="#32D305"/>
</svg>
