<svg width="19" height="14" viewBox="0 0 19 14" fill="none" xmlns="http://www.w3.org/2000/svg">
<path d="M8.95547 0.000371252C9.82995 0.0167028 10.5964 0.0289517 11.3629 0.0460256C11.8759 0.0571608 12.3888 0.070523 12.9018 0.0909374C13.4875 0.114321 14.0732 0.146613 14.6589 0.175193C14.9425 0.188927 15.2257 0.210084 15.5067 0.252397C16.1967 0.356697 16.7802 0.660316 17.2486 1.17922C17.4349 1.38596 17.5656 1.62759 17.6695 1.88333C17.8669 2.37068 17.9809 2.87807 18.0228 3.40217C18.0752 4.05692 18.1145 4.71204 18.1305 5.36864C18.1561 6.42537 18.1587 7.4821 18.1264 8.53882C18.1104 9.05772 18.0696 9.57551 18.0447 10.094C18.0251 10.5046 17.9701 10.9091 17.8543 11.3029C17.7905 11.519 17.7203 11.735 17.6327 11.9421C17.3232 12.6726 16.7687 13.1391 16.0278 13.3956C15.7869 13.4791 15.5367 13.5233 15.2836 13.5396C14.6285 13.5819 13.9733 13.6224 13.3175 13.6525C11.9475 13.7152 10.576 13.7393 9.2049 13.7519C8.8263 13.7553 8.44733 13.7438 8.06874 13.7364C7.68383 13.7289 7.2993 13.7204 6.91439 13.7089C6.06886 13.6836 5.22296 13.6599 4.3778 13.6283C3.99029 13.6139 3.60242 13.5931 3.21677 13.556C2.81924 13.5177 2.42135 13.4728 2.03978 13.3411C1.60403 13.1904 1.22803 12.9498 0.917356 12.6076C0.68092 12.3474 0.526141 12.0408 0.408108 11.7142C0.24108 11.2521 0.140864 10.7755 0.113026 10.2844C0.0781354 9.6657 0.042874 9.04659 0.0131802 8.42747C0.00130266 8.18064 0.00167381 7.9327 0.00167381 7.6855C0.00167381 6.97062 -0.00537846 6.25574 0.00946844 5.54124C0.0217171 4.96443 0.0599479 4.388 0.0918687 3.81194C0.104489 3.5833 0.120078 3.35429 0.151999 3.12787C0.212129 2.70028 0.322738 2.28494 0.489395 1.88556C0.82679 1.07714 1.43811 0.5794 2.26397 0.329972C2.53381 0.248686 2.81368 0.215651 3.09428 0.198577C3.60353 0.168141 4.11241 0.139561 4.62203 0.114321C4.96054 0.0976184 5.29942 0.0835138 5.6383 0.075348C6.7804 0.0478812 7.9225 0.0233839 8.95658 0L8.95547 0.000371252ZM9.22086 12.6926C10.0467 12.6763 10.9598 12.66 11.8729 12.6399C12.276 12.631 12.6791 12.6176 13.0818 12.5998C13.6523 12.5746 14.2228 12.5467 14.7929 12.5126C15.0182 12.4992 15.245 12.4818 15.4658 12.4398C16.0389 12.3311 16.4598 12.0197 16.6796 11.4666C16.8429 11.0557 16.9453 10.6293 16.9717 10.1868C17.0036 9.65049 17.0411 9.11414 17.0608 8.57706C17.0942 7.65209 17.0934 6.72602 17.0738 5.80106C17.06 5.1541 17.0233 4.50715 16.9895 3.86094C16.9769 3.61745 16.9535 3.37359 16.9175 3.13233C16.8689 2.80866 16.7824 2.49354 16.6454 2.19437C16.592 2.07745 16.5281 1.96647 16.4398 1.87145C16.1599 1.57006 15.817 1.38633 15.4116 1.31581C15.1492 1.27015 14.8846 1.25159 14.6192 1.23935C13.8627 1.20445 13.1063 1.16474 12.3495 1.13727C11.7207 1.11426 11.0916 1.10758 10.4624 1.09125C8.86156 1.04968 7.26144 1.09125 5.66205 1.14173C4.89595 1.16585 4.1306 1.20891 3.36487 1.24677C3.11804 1.25902 2.8701 1.27461 2.62958 1.33585C2.07838 1.47615 1.66898 1.7872 1.45593 2.32874C1.34383 2.6138 1.25995 2.90739 1.21541 3.2099C1.18349 3.42704 1.17013 3.64677 1.15379 3.86613C1.10406 4.52088 1.07214 5.17674 1.06657 5.83372C1.06137 6.43242 1.06323 7.03112 1.06397 7.62982C1.06397 7.87405 1.06286 8.11866 1.07473 8.36289C1.10517 9.00019 1.13895 9.63787 1.17866 10.2748C1.20539 10.7013 1.30375 11.1133 1.46892 11.5078C1.53053 11.6552 1.60922 11.7918 1.71946 11.9098C1.934 12.1396 2.19605 12.2884 2.49744 12.3693C2.81442 12.4547 3.14031 12.4903 3.46546 12.51C4.15732 12.5516 4.8503 12.5805 5.54291 12.6069C6.10746 12.6284 6.67239 12.6414 7.23731 12.6544C7.86942 12.6689 8.50152 12.6796 9.22086 12.6934V12.6926Z" fill="white"/>
<path d="M6.76562 6.68741C6.76562 5.96994 6.76562 5.25246 6.76562 4.53498C6.76562 4.27553 6.86621 4.06396 7.08112 3.91735C7.32981 3.74735 7.59445 3.73585 7.86021 3.87764C8.17794 4.04726 8.49232 4.22208 8.80819 4.39505C9.81703 4.94698 10.8259 5.50003 11.8355 6.05085C12.0366 6.16072 12.174 6.31958 12.2271 6.54377C12.3054 6.8756 12.1591 7.19815 11.8555 7.3648C11.5801 7.51587 11.3025 7.66322 11.0256 7.81169C9.98295 8.37216 8.94033 8.93263 7.89844 9.49385C7.78412 9.55546 7.66646 9.60075 7.53469 9.6052C7.17132 9.61856 6.85953 9.37804 6.78604 9.02097C6.77156 8.95008 6.76711 8.87585 6.76674 8.80272C6.76525 8.0975 6.766 7.39227 6.766 6.68667L6.76562 6.68741Z" fill="white"/>
</svg>
